<?xml version="1.0" encoding="UTF-8"?>
<svg width="220px" height="178px" viewBox="0 0 220 178" version="1.1" xmlns="http://www.w3.org/2000/svg" xmlns:xlink="http://www.w3.org/1999/xlink">
    <!-- Generator: Sketch 54.1 (76490) - https://sketchapp.com -->
    <title>404</title>
    <desc>Created with Sketch.</desc>
    <defs>
        <linearGradient x1="-0.0103373456%" y1="50.0146235%" x2="100.004589%" y2="50.0146235%" id="linearGradient-1">
            <stop stop-color="#808080" stop-opacity="0.25" offset="0%"></stop>
            <stop stop-color="#808080" stop-opacity="0.12" offset="54%"></stop>
            <stop stop-color="#808080" stop-opacity="0.1" offset="100%"></stop>
        </linearGradient>
        <linearGradient x1="100.028957%" y1="49.9753114%" x2="-0.000520432209%" y2="49.9753114%" id="linearGradient-2">
            <stop stop-color="#808080" stop-opacity="0.25" offset="0%"></stop>
            <stop stop-color="#808080" stop-opacity="0.12" offset="54%"></stop>
            <stop stop-color="#808080" stop-opacity="0.1" offset="100%"></stop>
        </linearGradient>
    </defs>
    <g id="Page-1" stroke="none" stroke-width="1" fill="none" fill-rule="evenodd">
        <g id="404">
            <ellipse id="Oval" fill="#6C63FF" fill-rule="nonzero" opacity="0.1" cx="113.5" cy="89" rx="99.5" ry="89"></ellipse>
            <ellipse id="Oval" fill="#6C63FF" fill-rule="nonzero" opacity="0.1" cx="36.5" cy="134.5" rx="36.5" ry="5.5"></ellipse>
            <ellipse id="Oval" fill="#6C63FF" fill-rule="nonzero" opacity="0.1" cx="55" cy="164" rx="14" ry="3"></ellipse>
            <ellipse id="Oval" fill="#6C63FF" fill-rule="nonzero" opacity="0.1" cx="151" cy="153" rx="14" ry="3"></ellipse>
            <ellipse id="Oval" fill="#6C63FF" fill-rule="nonzero" opacity="0.1" cx="103" cy="150" rx="23" ry="4"></ellipse>
            <ellipse id="Oval" fill="#6C63FF" fill-rule="nonzero" opacity="0.1" cx="171.5" cy="129.5" rx="48.5" ry="7.5"></ellipse>
            <path d="M9.52723917,116.992748 C7.25847516,121.354894 7.53312073,126.584895 10.2466069,130.691474 C10.6839125,131.339781 11.0862337,131.806562 11.4076533,131.92974 C12.9491556,132.528343 16.0365332,134 16.0365332,134 L23.4707286,131.112873 C23.4707286,131.112873 24.6776921,124.802686 25.8190597,119.385001 L25.8190597,119.385001 C26.5974637,115.689651 27.3496294,112.411379 27.6579298,111.836547 C28.4275877,110.421077 27.6579298,95.010821 27.6579298,95.010821 C27.6579298,95.010821 20.2237344,94.5181078 18.1793307,100.182149 L17.2850407,101.910968 L9.52723917,116.992748 Z" id="Path" fill="#A8A8A8" fill-rule="nonzero"></path>
            <path d="M19.513574,117.640221 C23.9697381,122.532107 25.8496487,118.301007 25.8496487,118.301007 L25.8496487,118.301007 L25.8496487,118.301007 C26.6171351,114.769928 27.3587512,111.637386 27.6627276,111.088107 C28.4215905,109.735559 27.6627276,95.01034 27.6627276,95.01034 C27.6627276,95.01034 20.332801,94.5395295 18.3170712,99.9517858 L17.4353242,101.603753 C16.8704887,105.933971 16.3121208,114.119466 19.513574,117.640221 Z" id="Path" fill="#FFFFFF" fill-rule="nonzero" opacity="0.1"></path>
            <path d="M21,133 L45.6092921,130.028464 L50,99.8242836 L46.6797963,91.9795152 C45.2770773,88.638657 43.3346511,85.5752109 40.9376282,82.9234065 C39.2662471,81.0817404 37.2462344,79.3108252 35.1216321,78.4210797 C34.831294,78.2987398 34.5348706,78.1928178 34.2336468,78.1037729 C33.5313068,77.880737 32.7693135,78.0217386 32.1828725,78.4832547 C29.1477265,80.7322741 28.0628668,90.2943586 27.7121844,94.8974517 C27.5679072,96.7889742 27.3234905,98.6706864 26.980058,100.533936 L21,133 Z" id="Path" fill="#A8A8A8" fill-rule="nonzero"></path>
            <path d="M37.5568362,98.6952252 L32.0918124,112 C34.9554849,109.927484 39.1985294,98.6411407 39.1985294,98.6411407 L43,111.508913 L39.9701908,97.9466964 C40.4137397,95.0015718 40.5426965,92.0184123 40.3549285,89.0465592 C40.1144674,85.6414022 36.8857313,80.1767093 35.1325517,77.4248924 C34.8230676,77.3014448 34.507097,77.1945637 34.1860095,77.1047125 C33.4373548,76.8796571 32.6251129,77.0219355 32,77.4876304 C33.377186,80.2243036 36.820151,87.0670683 37.8694356,89.1006436 C39.2007154,91.6620832 37.5568362,98.6952252 37.5568362,98.6952252 Z" id="Path" fill="#FFFFFF" fill-rule="nonzero" opacity="0.1"></path>
            <path d="M42,133 L55.8098747,133 C56.9578712,133.000311 58.0556903,132.52814 58.8467411,131.693847 C59.6377919,130.859555 60.0527474,129.736257 59.9946209,128.586499 C59.6891959,122.647948 58.9150285,112.059801 57.0739947,105.338518 C56.0792425,101.712003 54.9232939,99.8083487 53.8627905,98.8703469 C53.3654822,98.3890543 52.7234223,98.0861884 52.0366037,98.0089167 C51.5156191,97.9637942 50.9942137,98.0907783 50.551899,98.3705047 C47.9876019,100.835684 44.9927405,113.808185 44.9927405,113.808185 L42,133 Z" id="Path" fill="#A8A8A8" fill-rule="nonzero"></path>
            <path d="M55.483254,121.798557 C56.0546468,123.496106 56.2806454,125.454112 55.483254,127.361855 L52.389631,129 C52.389631,129 44.0745865,125.223355 45.0851842,117.482718 C45.0851842,117.482718 45.3580882,115.883413 48.2214484,116.006788 C51.5152155,116.177378 54.3852962,118.466457 55.483254,121.798557 Z" id="Path" fill="#FFFFFF" fill-rule="nonzero" opacity="0.1"></path>
            <path d="M52.3314266,102.63814 C52.2254374,100.0585 53.7446164,99.1638779 55,98.8794227 C54.4477535,98.3880775 53.7347647,98.0788856 52.9720727,98 C52.0982524,98.6741386 51.478933,99.5864632 51.2032301,100.605697 L48,115 C48,115 52.5104307,106.961425 52.3314266,102.63814 Z" id="Path" fill="#FFFFFF" fill-rule="nonzero" opacity="0.1"></path>
            <path d="M38.2121814,114 L44.8492227,123.448745 L46,131.24771 L41.734507,133.439562 L35.5853624,134.853659 C34.9931431,134.990561 34.3842025,135.031753 33.779939,134.975786 L17,133.439562 L19.2830269,127.931007 L27.1676013,116.410394 L38.2121814,114 Z" id="Path" fill="#A8A8A8" fill-rule="nonzero"></path>
            <path d="M35.7204426,111.003699 C35.7204426,111.003699 40.3469014,111.323944 38.6098764,119.340667 C36.8728514,127.35739 19,128 19,128 C19,128 22.7979021,121.213356 28.6398577,116.350302 C29.2959737,115.80525 29.9289574,115.236868 30.5325,114.630312 C31.8762759,113.275104 34.4460635,110.893417 35.7204426,111.003699 Z" id="Path" fill="#FFFFFF" fill-rule="nonzero" opacity="0.1"></path>
            <path d="M40,117 C40,117 46.5789105,122.908101 45.9587582,132" id="Path" fill="#000000" fill-rule="nonzero" opacity="0.1"></path>
            <path d="M50,100 C50,100 43.7062374,108.665846 43,122" id="Path" fill="#000000" fill-rule="nonzero" opacity="0.1"></path>
            <path d="M27.2995493,95 C27.2995493,95 30.840378,109.255204 22,120" id="Path" fill="#000000" fill-rule="nonzero" opacity="0.1"></path>
            <path d="M85.9634746,150 L121.045112,150 C121.734871,149.996339 122.372203,149.63636 122.724428,149.051488 C123.076653,148.466616 123.092215,147.742458 122.765433,147.143394 L105.233216,115.018768 C104.890879,114.391323 104.226774,114 103.504293,114 C102.781813,114 102.117708,114.391323 101.775371,115.018768 L84.2345524,147.143394 C83.9070573,147.743787 83.9234704,148.469712 84.2777762,149.055112 C84.6320821,149.640513 85.2721812,149.999309 85.9634746,150 L85.9634746,150 Z M105.736409,144.129854 L101.272177,144.129854 L101.272177,139.729366 L105.736409,139.729366 L105.736409,144.129854 Z M105.736409,136.794293 L101.272177,136.794293 L101.272177,127.991195 L105.736409,127.991195 L105.736409,136.794293 Z" id="Shape" fill="#464353" fill-rule="nonzero"></path>
            <path d="M85.9634746,150 L121.045112,150 C121.734871,149.996339 122.372203,149.63636 122.724428,149.051488 C123.076653,148.466616 123.092215,147.742458 122.765433,147.143394 L105.233216,115.018768 C104.890879,114.391323 104.226774,114 103.504293,114 C102.781813,114 102.117708,114.391323 101.775371,115.018768 L84.2345524,147.143394 C83.9070573,147.743787 83.9234704,148.469712 84.2777762,149.055112 C84.6320821,149.640513 85.2721812,149.999309 85.9634746,150 L85.9634746,150 Z M105.736409,144.129854 L101.272177,144.129854 L101.272177,139.729366 L105.736409,139.729366 L105.736409,144.129854 Z M105.736409,136.794293 L101.272177,136.794293 L101.272177,127.991195 L105.736409,127.991195 L105.736409,136.794293 Z" id="Shape" fill="#000000" fill-rule="nonzero" opacity="0.1"></path>
            <path d="M85.9634746,150 L121.045112,150 C121.734871,149.996339 122.372203,149.63636 122.724428,149.051488 C123.076653,148.466616 123.092215,147.742458 122.765433,147.143394 L105.233216,115.018768 C104.890879,114.391323 104.226774,114 103.504293,114 C102.781813,114 102.117708,114.391323 101.775371,115.018768 L84.2345524,147.143394 C83.9070573,147.743787 83.9234704,148.469712 84.2777762,149.055112 C84.6320821,149.640513 85.2721812,149.999309 85.9634746,150 L85.9634746,150 Z M105.736409,144.129854 L101.272177,144.129854 L101.272177,139.729366 L105.736409,139.729366 L105.736409,144.129854 Z M105.736409,136.794293 L101.272177,136.794293 L101.272177,127.991195 L105.736409,127.991195 L105.736409,136.794293 Z" id="Shape" fill="#464353" fill-rule="nonzero"></path>
            <path d="M66.4091272,133.032379 C66.2554377,132.934033 66.0910223,132.8538 65.9191206,132.793261 C65.350628,132.579763 64.7439531,132.524253 64.1754605,132.319295 C63.8510026,132.208019 63.552786,132.030691 63.299388,131.798359 C63.2569632,131.755659 63.2166596,131.712959 63.1784773,131.668125 C63.3906014,131.533621 63.5836343,131.399117 63.7936372,131.273153 C63.1677651,130.216822 62.2880607,129.335823 61.2354206,128.711173 C61.5769404,128.205182 62.3469509,128.245746 62.7966539,127.837964 C63.0241885,127.611587 63.1729906,127.317297 63.2209021,126.998916 C63.3884802,126.159867 63.1805986,125.290929 62.9727169,124.464691 C62.5696812,122.848508 62.1624029,121.221651 61.5090607,119.693003 C61.209142,119.06356 60.9442839,118.417795 60.7157166,117.758708 C60.1663152,115.918352 60.5502598,113.915738 60.1344966,112.034817 C60.0008584,111.430617 59.7844918,110.807202 59.9350999,110.209407 C60.1663152,109.282824 61.195117,108.734133 61.4199686,107.80755 C62.2345251,104.509001 62.3808907,101.086623 62.8433212,97.7197537 C62.9485997,97.0795064 63.0060342,96.4322154 63.0151418,95.7833238 C63.0151418,95.1022641 62.894231,94.4276094 62.8454425,93.7486846 C62.7139255,91.8421445 63.0936277,89.9377393 63.2569632,88.0333341 C63.6216629,88.6205725 63.8822082,89.2671256 64.0269737,89.9441442 C64.119242,90.5718498 64.1342037,91.2086158 64.0715197,91.8400095 C64.0568415,92.2632645 64.0121821,92.6849265 63.9378816,93.1017847 C63.8339408,93.5971008 63.651514,94.0710671 63.5306033,94.5663833 C63.2707155,95.5408779 63.34164,96.5748186 63.7321212,97.5041204 C64.02061,98.1446154 64.654861,98.7381408 65.3145669,98.5459923 C65.7706337,98.4136233 66.046395,97.9567369 66.2500342,97.5233353 C66.8864064,96.1654858 67.2406537,94.5920031 66.812163,93.1487543 C66.530038,92.1880118 65.9106356,91.3190735 65.8533621,90.3156313 C65.8518274,89.9144904 65.8830439,89.5139007 65.9466967,89.1179057 C66.2118518,86.7993137 65.6391168,84.4700468 65.5118423,82.138645 C65.4779025,81.5216348 65.5330547,80.7551757 65.3951741,80.0997358 C65.3782041,80.0207414 65.359113,79.9417471 65.3357793,79.8670226 C65.3902968,79.8816023 65.4419463,79.9054283 65.4885087,79.9374771 C65.6572074,79.5553608 65.6463034,79.1171592 65.4588113,78.7440214 C65.38368,78.6236262 65.3170503,78.4980643 65.2594147,78.3682643 C65.1788075,78.154766 65.1936562,77.9071079 65.0939579,77.7021495 C65.0301188,77.5943577 64.9592557,77.4909405 64.8818338,77.3925769 C64.6081937,76.993335 64.593345,76.476669 64.5869813,75.9920278 C64.5544556,73.4642075 64.4837476,70.9392338 64.3748572,68.4171067 C64.3175837,67.1361167 64.2454615,65.8252369 63.8000009,64.6232412 C63.4144992,63.5552534 62.7199992,62.6279638 61.8060344,61.960917 C61.662269,61.8585141 61.5128338,61.7644229 61.3584526,61.6790992 C61.4368877,61.4968369 61.4800834,61.3011966 61.4857271,61.1026536 C61.4899701,61.0401003 61.4899701,60.9773285 61.4857271,60.9147751 L61.4729996,60.8080259 L61.4729996,60.8080259 C61.3963303,60.3620017 61.2533079,59.9301549 61.0487514,59.5270359 C60.8201445,59.0929093 60.6822614,58.6162743 60.6435944,58.1264868 C60.6431912,58.038019 60.64815,57.9496089 60.6584431,57.8617489 L60.6584431,57.8617489 C60.7305653,57.2468736 61.0487514,56.6704281 61.1611772,56.0555529 C61.1946912,55.864588 61.2103156,55.6708776 61.2078445,55.4769724 C61.2078445,55.4107879 61.2078445,55.3424685 61.2078445,55.274149 C61.1232138,54.5174591 60.8918699,53.7848389 60.5269262,53.1178158 C60.4208641,52.9043174 60.3148021,52.6908191 60.1960126,52.4773207 C60.1408603,52.0780789 60.0793443,51.678837 60.0178283,51.2817301 C59.9838885,51.0511518 59.9478274,50.8205736 59.8990388,50.5921304 C59.8749981,50.4782646 59.847422,50.3672455 59.8163104,50.259073 C60.1451028,49.9473654 59.9541911,49.490479 59.7441883,49.0677523 C59.3390312,48.2649985 59.4238809,47.306391 59.2520604,46.4225079 C59.1144746,45.8077333 58.9051394,45.2114911 58.6284155,44.6462017 C58.4661455,44.2380591 58.237457,43.859974 57.9517397,43.5274704 C57.6887672,43.2763722 57.3942356,43.0610406 57.0756672,42.8869754 C56.8104541,42.7060219 56.516248,42.5724103 56.2059584,42.4920034 C56.0129255,42.4535737 55.8156501,42.4557087 55.6247384,42.4108741 C55.5018128,42.3799205 55.3823904,42.3362779 55.2683699,42.2806401 C55.0319212,42.1450604 54.774482,42.0505115 54.5068444,42.0009573 C54.2548316,41.992462 54.0041051,42.0405983 53.7728951,42.1418662 C53.5221439,42.2529067 53.2560645,42.3248968 52.9837934,42.3553645 C52.8883376,42.3553645 52.786518,42.3553645 52.6846985,42.3553645 C52.5426739,42.3434881 52.4006215,42.3779213 52.2795415,42.4535737 C52.2168206,42.5085023 52.1586477,42.56848 52.1055997,42.6329123 C51.9513997,42.7725461 51.7794976,42.8910009 51.5943806,42.9851846 C50.0706297,43.89215 49.1316517,45.5374967 49.1210137,47.3192009 C49.139096,47.5551495 49.1183106,47.7924837 49.0594977,48.0216104 C48.9979817,48.200949 48.877071,48.3568028 48.8261612,48.5404114 C48.7912678,48.7001985 48.7833795,48.8647617 48.8028276,49.0271876 C48.8197975,49.2769807 48.8452524,49.5246387 48.8728285,49.7744318 L48.8728285,49.7744318 C48.7153185,49.9754719 48.6090016,50.2122036 48.5631274,50.4640314 L48.5631274,50.4640314 C48.5536538,50.5076431 48.547274,50.5518777 48.5440362,50.5964004 L48.5440362,50.6134803 L48.5440362,50.6134803 C48.5207025,51.0596918 48.7391904,51.4674736 48.8664648,51.8944703 C49.080026,52.7215024 49.0579726,53.5923377 48.8028276,54.4073457 C48.647977,54.9688464 48.4273679,55.5495618 48.3785794,56.1153324 L48.3785794,56.1153324 C48.3785794,56.1281423 48.3785794,56.1409522 48.3785794,56.1537621 C48.3512102,56.4421642 48.3844565,56.7331351 48.4761565,57.0077555 C48.5461574,57.202039 48.6500982,57.3835126 48.7137355,57.579931 C48.938587,58.2759356 48.6119159,59.0061 48.1791828,59.6167052 L48.1791828,59.6167052 C48.111303,59.7127795 48.0413021,59.8045837 47.9670587,59.894253 L47.9776649,59.894253 L47.9670587,59.904928 L48.4082768,60.2187705 C48.2788811,60.28709 48.1494854,60.3618144 48.0179684,60.4322689 C47.5088008,60.5161907 47.0204869,60.6981389 46.5797671,60.9681497 C46.1611497,61.1805923 45.769442,61.4429447 45.4130846,61.7495536 C45.0404097,62.1244973 44.7296228,62.5569401 44.492466,63.0305436 C44.2012013,63.5674189 43.9405732,64.1205648 43.7118494,64.6872907 C43.5108358,65.1444006 43.3765163,65.6283508 43.3130561,66.1241346 C43.1306294,66.5148365 42.9800213,66.9354283 42.8124432,67.3133203 C42.7275936,67.5076038 42.6448652,67.7018873 42.5621368,67.8961708 L35.2608255,49.9025308 L34.1280829,50.3764971 L34.217175,50.5899954 L33.9817173,50.6903397 L34.3020246,51.4760135 C34.2553573,51.5080383 34.20869,51.540063 34.164144,51.5742228 L34.1047492,51.6211924 L33.9859597,51.7151317 L33.926565,51.7642363 L33.8056543,51.8667155 L33.7611082,51.9051452 L33.6105001,52.0439191 L33.6105001,52.0439191 C33.4492858,52.191233 33.2944352,52.3470868 33.1438271,52.5029406 L32.75564,52.9064524 L32.6813966,52.9854468 L32.5520009,53.1178158 L32.4798787,53.1925402 L32.2953307,53.3782837 L32.2826033,53.3910936 L32.1680563,53.5021128 L32.0959341,53.5704322 C32.0662367,53.600322 32.0344181,53.6280768 32.0025995,53.6558316 L31.9135074,53.7390959 L31.769263,53.862925 L31.7268382,53.9013547 L31.5295628,54.0593434 C31.263926,54.2678703 30.9799131,54.4515308 30.6810664,54.6080342 C29.5207476,55.2122345 28.2925491,55.7182255 27.1598065,56.3651255 C26.5373176,56.7123174 25.9528764,57.1245061 25.4161464,57.5948759 C24.6673484,58.2631257 24.0330973,59.0893643 23.1655098,59.5740055 L23.070054,59.6252451 C21.5342755,60.419459 19.724857,59.9433577 17.9790758,59.9091979 C17.7181631,59.9091979 17.461493,59.9091979 17.2069441,59.9262778 C15.7899551,60.0372969 14.4938769,60.6158774 13.2402235,61.3204219 C12.3577873,61.8178731 11.4965635,62.3772387 10.6310972,62.8832298 C10.083817,63.2013423 9.53441564,63.5472096 8.982893,63.9016169 C7.582874,64.7961749 6.16588506,65.7355676 4.70010758,66.4123573 C3.33827091,67.0400424 1.94249439,67.4392843 0.45762574,67.3624249 L0.438534572,67.3624249 C0.29641143,67.3624249 0.154288288,67.3432101 0.0142863877,67.3261302 C-0.123594272,68.4469965 0.767326915,69.3500945 1.36127437,70.3364568 C1.64519191,70.7618096 1.81808834,71.2522866 1.86400847,71.7626257 C1.87119781,71.9543481 1.85696698,72.1462765 1.82158365,72.3348012 C1.70279416,73.0265359 1.38460802,73.7054606 1.4715789,74.4014652 C1.52399534,74.8086067 1.67958911,75.1953322 1.92340322,75.5244664 C2.3009841,76.0667522 2.82493061,76.5492585 3.18129908,77.1150291 C3.72009428,77.9690224 3.86009618,79.0087593 4.07009903,80.0143365 C4.18395581,80.7199978 4.42018028,81.40002 4.76798729,82.0233559 C5.22617533,82.7663301 5.92618484,83.3043459 6.58376952,83.8743865 C6.70468025,83.9790007 6.82346975,84.0878848 6.93801676,84.194634 C7.02286639,84.2714934 7.10559479,84.3526227 7.1840807,84.4358871 C7.95409116,85.2279659 8.52682621,86.4491764 8.06227444,87.4398087 C8.04742576,87.4739685 8.03045583,87.5038582 8.0134859,87.535883 C8.05043882,87.5624732 8.08945363,87.5860337 8.13015415,87.6063374 C8.72198037,87.8966952 9.46441469,87.4312688 9.95017886,86.9380876 C10.1898791,86.6968345 10.4168519,86.4406365 10.6374609,86.1801685 C11.2292871,85.5183237 11.7723248,84.8009693 12.3344537,84.1135046 C12.487183,83.927761 12.6399124,83.7462875 12.7968842,83.5669489 C13.392342,82.8801871 14.1014012,82.3023305 14.8926702,81.8589621 C15.3045814,81.6453092 15.7348189,81.4695268 16.1781422,81.3337562 C16.8357269,81.1202579 17.514524,80.9622691 18.1742299,80.7530407 C19.0806553,80.4604502 19.9600485,80.0889838 20.8024474,79.6428494 C22.2694484,78.8492034 23.6863102,77.965058 25.0449293,76.99547 L25.2570534,76.8566961 C25.7138738,76.5668737 26.1371968,76.2267374 26.5191917,75.842579 C26.5870714,75.7678545 26.6528299,75.6909951 26.7143459,75.6120007 C27.0452595,75.1850041 27.2595048,74.679013 27.5628422,74.2349365 C27.8834707,73.777734 28.2872637,73.3858136 28.7528584,73.0799105 C30.061664,72.1938923 31.7989604,71.856565 33.35383,71.3719237 L33.3707999,71.3719237 C36.0953611,70.5299641 38.5805022,69.0447378 40.6190801,67.0400424 L41.7815201,69.9051902 C41.6613165,70.2439408 41.5474766,70.5862499 41.4400003,70.9321172 C41.181209,71.7861105 40.9690849,72.6657237 40.4621083,73.3873481 C40.2947742,73.5789827 40.1690574,73.8036847 40.0930124,74.0470579 C40.0862645,74.2265291 40.0570434,74.4044262 40.0060415,74.5765338 C39.9339193,74.7217127 39.7833112,74.8177869 39.7217952,74.9672358 C39.6327031,75.1807341 39.7493713,75.456147 39.6305818,75.6568354 C39.5733655,75.7368916 39.5055681,75.8087196 39.429064,75.8703337 C39.1257265,76.1414766 39.0451193,76.5684733 39.0451193,76.9570403 C39.0744833,77.3524834 39.0422762,77.7501162 38.9496635,78.1355511 C39.0381867,78.0828283 39.1295396,78.0350741 39.2233036,77.9925072 C39.2096011,78.0628904 39.2017958,78.1343075 39.1999699,78.2060056 C39.1992614,78.4083468 39.2242107,78.6099519 39.2742134,78.8059359 C39.4184667,79.2500125 39.6271932,79.6701699 39.8936157,80.0527662 C40.0936533,80.3873907 40.3154531,80.7083382 40.5575641,81.0135087 C40.9788017,81.484744 41.4496504,81.9085329 41.9618256,82.2774189 L44.1000365,83.938436 L43.8879124,84.837264 C43.4212394,86.7203193 42.9503239,88.6268595 42.9269902,90.5696944 C42.9333088,91.4895299 42.9906716,92.4082922 43.0988107,93.321688 L43.2833587,95.1962034 C43.4318456,96.7056366 43.5803324,98.2150699 43.743668,99.7245031 C43.8476088,100.678841 43.9557921,101.645988 44.2909481,102.546951 C44.7958035,103.915476 44.2379171,105.461204 44.4521625,106.908722 C44.6218617,108.042398 44.9570178,109.214504 44.6197405,110.309751 C44.4839811,110.736747 44.2464021,111.146664 44.0724603,111.569391 C43.6376059,112.619803 43.5930599,113.787639 43.5569988,114.925585 C43.4888868,115.922973 43.5251472,116.924805 43.6651821,117.914562 C43.8476088,118.935084 44.2506446,119.936391 44.1721587,120.971858 C44.0618541,122.442861 42.9927487,123.700367 42.863353,125.17137 C42.7594122,126.343476 43.2663888,127.477152 43.8115477,128.516889 C44.2124622,129.283348 43.6524546,130.27398 43.4403305,131.117299 C43.0160824,132.771911 43.7203343,134.501248 44.5794369,135.967981 C44.6014187,136.017677 44.6395794,136.058345 44.6876202,136.08327 C44.7851973,136.119565 44.8764106,136.021356 44.9400479,135.938091 C45.0036851,135.854827 45.0227763,135.835612 45.0673223,135.786508 C45.0673223,135.852692 45.0800498,135.918877 45.0842922,135.982926 C45.0842922,136.1217 45.0948985,136.260474 45.0948985,136.409923 C45.0914003,136.950134 45.1892777,137.486152 45.3833872,137.98981 C45.4176849,138.087315 45.4573426,138.182825 45.5021767,138.275898 C45.5549041,138.400772 45.6264533,138.516712 45.7143008,138.619631 C45.9440162,138.839632 46.2458939,138.967242 46.5627972,138.978308 C47.2670492,139.055167 47.9755436,138.907853 48.6840381,138.845939 C49.4307149,138.781889 50.1795129,138.809644 50.928311,138.792564 C50.9863926,138.7958 51.0442708,138.783264 51.095889,138.756269 C51.1433056,138.716696 51.1767804,138.662789 51.1913449,138.602551 C51.2729193,138.329578 51.2853163,138.040397 51.227406,137.761367 C51.1871771,137.535725 51.1340579,137.312605 51.0683129,137.093117 C50.9686146,136.740845 50.8774012,136.386438 50.7904303,136.025626 C50.7734604,135.959441 50.7586117,135.893257 50.743763,135.827072 L50.7777029,135.842017 C51.2344768,134.808685 51.6919577,133.775353 52.1501458,132.742021 C52.381361,132.21895 52.6168188,131.65318 52.5022718,131.091679 C52.4195434,130.690302 52.1649944,130.35084 51.984689,129.983623 C51.5604408,129.116819 51.5434709,128.104837 51.5371071,127.135555 L51.5116522,121.644378 C52.5722727,120.286528 53.2277361,118.670346 53.6328932,116.983709 C54.2615214,119.356966 54.304485,121.848873 53.7580464,124.242652 C53.6604842,124.605023 53.5930786,124.974942 53.5565285,125.348574 C53.4738001,126.870817 54.6510888,128.160347 54.9650325,129.650565 C54.993912,129.764877 55.0018194,129.883533 54.9883661,130.000703 C54.9535667,130.144836 54.8947537,130.281993 54.8144244,130.406349 C54.2501743,131.446086 54.3116903,132.701457 54.3901762,133.884237 L54.6383614,133.924802 C54.6995432,134.035112 54.7908151,134.125493 54.9013952,134.18527 L54.9013952,134.18527 C55.0042443,134.245785 55.1148801,134.291763 55.2301876,134.321909 C55.6369312,134.417244 56.0503922,134.480771 56.466871,134.511922 C57.065061,134.571702 57.6653722,134.631482 58.2656833,134.669911 C58.5032623,134.684856 58.7408413,134.697666 58.9784203,134.704071 C59.3119778,134.704011 59.6451269,134.727554 59.9754035,134.774525 C60.336285,134.850283 60.6908643,134.953777 61.036024,135.084098 C62.5824086,135.605034 64.3133412,135.901797 65.8109373,135.252762 C66.1488307,135.12275 66.4486878,134.909067 66.6827673,134.631482 C66.8968396,134.398411 66.9926117,134.079251 66.9425134,133.765879 C66.8924151,133.452507 66.7020049,133.179694 66.4260972,133.025974 L66.4091272,133.032379 Z M45.892485,72.1704075 C46.1173366,72.620889 46.3421881,73.0692355 46.5288573,73.5367969 C46.895832,74.4420299 47.1185623,75.4582819 46.8852258,76.4019446 C46.8173461,76.6794924 46.3740067,76.8929908 46.376128,77.1790786 C46.3635487,77.2004588 46.3522163,77.2225576 46.3421881,77.245263 L44.9570178,73.8292896 C45.2252986,73.2525789 45.5380789,72.6979196 45.892485,72.1704075 L45.892485,72.1704075 Z M44.3715553,79.429351 C44.066923,79.0285887 43.8145621,78.5901948 43.620636,78.1248762 C43.5951811,78.0672316 43.567605,78.0117221 43.5421501,77.9540775 C43.6208646,77.9213131 43.6901527,77.8691938 43.743668,77.8024937 C43.9557921,77.5334858 43.8412451,77.1406489 43.8730637,76.7947815 C43.923852,76.4892106 44.0388378,76.1980642 44.210341,75.9407882 L45.5106617,79.1432633 C45.3791447,79.4905539 45.2561128,79.8414028 45.1415658,80.1958101 C44.8666994,79.9595308 44.6093448,79.7033631 44.3715553,79.429351 L44.3715553,79.429351 Z" id="Shape" fill="url(#linearGradient-1)" fill-rule="nonzero"></path>
            <path d="M49.6028674,50.8303538 C49.5789268,51.2561389 49.8052742,51.6452535 49.9380356,52.0527034 C50.1576657,52.8396429 50.13579,53.6686049 49.8749195,54.4444341 C49.6311609,55.2593339 49.2219945,56.1210904 49.5332221,56.9176549 C49.6050438,57.1050818 49.7138647,57.2762107 49.7791572,57.4636377 C50.0490329,58.2377924 49.548457,59.0526922 49,59.6862767 L51.1524761,61.0980905 C51.466758,61.3419217 51.8405982,61.5091909 52.2406845,61.5849931 C52.6433216,61.6298126 53.1112512,61.4281249 53.193955,61.0573455 C53.2222484,60.9310361 53.193955,60.7986149 53.220072,60.6702682 C53.2738109,60.333494 53.4984873,60.0419453 53.8229395,59.8879644 C54.1462364,59.7395599 54.5067742,59.6768542 54.8654431,59.7066492 C56.186528,59.7738785 57.3095591,60.5867409 58.5109411,61.1082768 C59.3030006,61.429327 60.1237942,61.6842939 60.9637627,61.870208 C61.440398,61.9863313 61.9692673,62.0922682 62.4001978,61.870208 C62.8311283,61.6481479 63.0291822,61.1327238 62.996536,60.6661937 C62.9296262,60.2021928 62.7748542,59.7530793 62.5394884,59.3399443 C62.301959,58.9272899 62.1589021,58.4728305 62.11944,58.005546 C62.11944,57.3210302 62.5199007,56.6976319 62.6548385,56.0253396 C62.8441868,55.0698697 62.458961,54.0981018 61.988855,53.2302335 C61.518749,52.3623653 60.9485278,51.5270931 60.7200041,50.5818094 C60.674646,50.2952767 60.5950713,50.0144152 60.4827746,49.7444999 C60.3738691,49.5395231 60.226422,49.3545778 60.0474913,49.1985171 C59.2400407,48.4508466 58.0887162,48.0963652 56.9613324,48.0189497 C55.8339485,47.9415342 54.6956826,48.1147004 53.5770044,48.2960156 C53.1501969,48.3530425 52.729851,48.4464655 52.3212119,48.5751188 C51.7372675,48.7923427 51.1827899,49.0733944 50.6693116,49.4124282 C50.1600301,49.7424626 49.6355137,50.2252907 49.6028674,50.8303538 Z" id="Path" fill="#464353" fill-rule="nonzero"></path>
            <g id="Group" opacity="0.1" transform="translate(49.000000, 50.000000)" fill="#000000" fill-rule="nonzero">
                <path d="M12.9855385,7.86732143 C12.9855385,7.93696429 12.9855385,8.00660714 12.9984615,8.07392857 C13.0652308,7.39375 13.3969231,6.75535714 13.5153846,6.07517857 C13.5611377,5.80264345 13.5748867,5.52498572 13.5563077,5.24875 C13.5563077,5.36946429 13.5347692,5.48089286 13.5153846,5.61089286 C13.3796923,6.37696429 12.9769231,7.08732143 12.9855385,7.86732143 Z" id="Path"></path>
                <path d="M1.08123077,2.48857143 C1.10660197,2.01882947 1.05780629,1.54785379 0.936923077,1.09571429 C0.809446727,0.743445814 0.705087307,0.381960865 0.624615385,0.0139285714 C0.624615385,0.0626785714 0.607384615,0.109107143 0.605230769,0.157857143 C0.581538462,0.643035714 0.805538462,1.08642857 0.936923077,1.55071429 C1.02014093,1.85586767 1.06859959,2.17080103 1.08123077,2.48857143 L1.08123077,2.48857143 Z" id="Path"></path>
                <path d="M13.8406154,11.2473214 C13.8100736,11.6680457 13.5957997,12.0480722 13.2633846,12.2710714 C12.8326154,12.5241071 12.3135385,12.4033929 11.8418462,12.2710714 C11.0102523,12.0594868 10.1978866,11.7681472 9.41446154,11.4005357 C8.22553846,10.8085714 7.11415385,9.88232143 5.80676923,9.80571429 C5.45181991,9.77176305 5.09502112,9.84321573 4.77507692,10.0123214 C4.45398952,10.1877814 4.23164312,10.5199986 4.17846154,10.90375 C4.16338462,11.05 4.17846154,11.2008929 4.15261538,11.3448214 C4.06861538,11.7673214 3.60769231,11.9971429 3.20923077,11.9460714 C2.81329356,11.8596955 2.44333026,11.6690936 2.13230769,11.39125 L0.217538462,9.94267857 C0.146461538,10.0471429 0.0753846154,10.1492857 0.00215384615,10.2444643 L2.13230769,11.8555357 C2.44333026,12.1333793 2.81329356,12.3239812 3.20923077,12.4103571 C3.60769231,12.4614286 4.07076923,12.2316071 4.15261538,11.8091071 C4.18061538,11.6651786 4.15261538,11.5142857 4.17846154,11.3680357 C4.23164312,10.9842844 4.45398952,10.6520671 4.77507692,10.4766071 C5.09502112,10.3075014 5.45181991,10.2360488 5.80676923,10.27 C7.11415385,10.3466071 8.22553846,11.2728571 9.41446154,11.8648214 C10.1978866,12.2324329 11.0102523,12.5237725 11.8418462,12.7353571 C12.3135385,12.8676786 12.8369231,12.9883929 13.2633846,12.7353571 C13.6898462,12.4823214 13.8858462,11.895 13.8535385,11.3633929 C13.8513846,11.3239286 13.8449231,11.2867857 13.8406154,11.2473214 Z" id="Path"></path>
                <path d="M0.779692308,7.71410714 C0.80624043,7.80742529 0.825689399,7.90291984 0.837846154,7.99964286 C0.871211509,7.74817504 0.851330096,7.49182897 0.779692308,7.24982143 C0.715076923,7.03625 0.607384615,6.84125 0.536307692,6.62767857 C0.484491545,6.47268195 0.451198149,6.31120473 0.437230769,6.14714286 C0.405418935,6.46610398 0.439247552,6.78870183 0.536307692,7.09196429 C0.607384615,7.30553571 0.715076923,7.50285714 0.779692308,7.71410714 Z" id="Path"></path>
            </g>
            <path d="M52.9068945,138.665211 C52.8908012,138.716194 52.8527854,138.761593 52.7989158,138.794162 C52.7417951,138.816807 52.6777473,138.827323 52.6134742,138.824609 C51.7778129,138.838937 50.9421517,138.824609 50.1088379,138.869383 C49.3201239,138.921322 48.5290626,139.048482 47.742696,138.980425 C47.2270815,138.994334 46.7563057,138.757985 46.5690145,138.391189 C46.5194011,138.313112 46.4755159,138.232991 46.4375622,138.151197 C46.2209149,137.729034 46.1117692,137.279223 46.1159734,136.825864 C46.1159734,136.705868 46.1159734,136.589454 46.1159734,136.467666 C46.1056926,136.336436 46.0829417,136.205948 46.0478999,136.077231 C45.9767082,135.929786 45.9851512,135.766808 46.0713735,135.62411 C46.4046991,135.160244 47.2098446,135.067112 47.8295484,135.031293 C49.2652248,134.948782 50.709002,135.029665 52.1134859,135.271285 C52.2238119,135.683213 52.3482222,136.091559 52.4796745,136.499904 C52.5766988,136.799596 52.6799828,137.098095 52.7895264,137.395399 C52.8630417,137.579492 52.9226067,137.766662 52.967926,137.955979 C53.0259784,138.192548 53.0049887,138.436463 52.9068945,138.665211 Z" id="Path" fill="#464353" fill-rule="nonzero"></path>
            <path d="M51.9219892,138.678498 C51.9072574,138.727457 51.872458,138.771055 51.8231461,138.802331 C51.7708582,138.824078 51.7122291,138.834176 51.6533939,138.83157 C50.8884345,138.845329 50.1234751,138.83157 49.3606644,138.874567 C48.6386802,138.924445 47.9145473,139.046558 47.1947119,138.981202 C46.7227214,138.994559 46.2917759,138.76759 46.1203307,138.415351 C46.0749149,138.340373 46.0347427,138.263432 46,138.184884 L46.2750416,138.184884 C47.1796706,138.184884 48.0864483,138.159085 48.9910773,138.159085 C49.2639701,138.159085 49.5390117,138.148765 49.8097558,138.122967 C50.0804998,138.097168 50.3018224,138.06105 50.54893,138.036971 C50.9188408,138.008595 51.2904224,137.996538 51.661989,138.000853 L51.9671132,138.000853 C52.0229906,138.226208 52.0074775,138.459174 51.9219892,138.678498 L51.9219892,138.678498 Z" id="Path" fill="#000000" fill-rule="nonzero" opacity="0.06"></path>
            <path d="M68.7243085,135.096497 C68.4774576,135.350395 68.1621623,135.54561 67.8073609,135.664227 C66.2303883,136.249515 64.4075674,135.986135 62.7796533,135.510101 C62.4155042,135.390956 62.0415923,135.296386 61.6611545,135.227212 C61.314073,135.184303 60.9640141,135.16279 60.6135308,135.16283 C60.3632529,135.16283 60.1129749,135.145271 59.8626969,135.131615 C59.2292501,135.096497 58.5980181,135.041871 57.9690009,134.987244 C57.5304702,134.958929 57.0950699,134.900878 56.6666696,134.813608 C56.5448587,134.786094 56.4278722,134.744087 56.3189383,134.688747 L56.3189383,134.688747 C56.1291975,134.615322 56.0048555,134.451792 56,134.269291 C56.0177188,134.021519 56.3100789,133.879099 56.5670014,133.771796 C58.8460812,132.903619 61.3222825,132.527084 63.7807651,132.224685 C64.0308532,132.187916 64.2743617,132.122321 64.5050208,132.029589 C64.7818769,131.932041 64.81067,132.092019 64.9479906,132.271508 C65.0128717,132.354591 65.0870733,132.431717 65.1694756,132.501721 C65.436496,132.714131 65.7500603,132.876135 66.0908528,132.977755 C66.6888621,133.172851 67.3289535,133.225527 67.9269628,133.410868 C68.107869,133.466154 68.2810118,133.539465 68.4430226,133.629376 C68.7328369,133.768406 68.9333645,134.017683 68.9862119,134.30462 C69.0390592,134.591556 68.9382848,134.883891 68.7132342,135.096497 L68.7243085,135.096497 Z" id="Path" fill="#464353" fill-rule="nonzero"></path>
            <path d="M67.7529854,134.856627 C67.5370167,135.177931 67.2611662,135.424975 66.950752,135.575082 C65.5710655,136.315758 63.9762874,135.982454 62.5520324,135.380038 C62.23344,135.229261 61.9063061,135.109584 61.5734627,135.022045 C61.2698026,134.967744 60.9635376,134.94052 60.6569013,134.94057 C60.4379342,134.94057 60.2189671,134.91835 60,134.901068 C60.1782741,134.686272 60.3604237,134.476414 60.5464489,134.273962 C60.6812836,134.113328 60.8365817,133.983087 61.0056984,133.888811 C61.2162565,133.80083 61.4407366,133.78131 61.6587242,133.832026 C62.767124,134.02707 63.7631336,135.017107 64.8812222,134.930695 C65.4021407,134.854319 65.9059937,134.647045 66.3636101,134.320872 C66.7357656,134.127747 67.0674928,133.826816 67.3324911,133.441936 C67.4124626,133.309249 67.4734653,133.159652 67.5127029,133 C67.7662601,133.175941 67.9417009,133.491399 67.9879368,133.854514 C68.0341727,134.217629 67.9460056,134.587576 67.7491099,134.856627 L67.7529854,134.856627 Z" id="Path" fill="#000000" fill-rule="nonzero" opacity="0.06"></path>
            <path d="M68.2032416,96.9017984 C67.9790706,97.3445974 67.6921317,97.8250343 67.2079224,97.962302 C66.5040254,98.1615615 65.827029,97.5372149 65.5199147,96.8818724 C65.1013179,95.9199668 65.0223637,94.8469883 65.2957437,93.8354154 C65.4235212,93.3239826 65.6185499,92.8324757 65.7283937,92.3188289 C65.8076584,91.886596 65.8556032,91.4493292 65.8718632,91.0103579 C65.9381071,90.3555975 65.9222957,89.695266 65.8247873,89.0443304 C65.4638719,87.1425087 63.8072482,85.7233379 63.2557875,83.8547262 C62.9778155,82.9226344 62.9912657,81.9307646 63.0069577,80.9588208 C63.0017392,80.7131082 63.0273399,80.4677025 63.0831758,80.2282025 C63.0998551,80.1628976 63.1223602,80.0991806 63.1504271,80.037799 C63.5203093,79.2274768 64.6165055,79.1167771 65.378687,78.6451961 C65.8001284,78.3861587 66.7573386,77.5514826 67.1115288,78.3130969 C67.1880051,78.4826953 67.2451463,78.6601677 67.2818988,78.8422417 C67.42761,79.5197241 67.3693255,80.3145483 67.4051929,80.9543929 C67.5419372,83.3720753 68.1516823,85.7853298 67.8692268,88.1897283 C67.80187,88.5996238 67.7688796,89.0143103 67.7705916,89.4295655 C67.8311178,90.4701431 68.4901805,91.371239 68.7928114,92.3675368 C69.2590871,93.8664113 68.8847215,95.4981256 68.2032416,96.9017984 Z" id="Path" fill="#FBBEBE" fill-rule="nonzero"></path>
            <path d="M67,79.1458981 C66.8413359,79.0654989 66.6674735,79.0654989 66.5088094,79.1458981 L65.0630005,79.7420723 C64.556349,79.9306685 64.0625481,80.1810306 63.5872931,80.490271 C63.3798299,80.6323928 63.183084,80.8031544 63,81 C63.0158898,80.9120749 63.0373298,80.8262879 63.0640683,80.7436451 C63.4164442,79.6526462 64.4607581,79.5036026 65.186866,78.8686771 C65.5883609,78.5199151 66.500267,77.3961267 66.8376935,78.4215464 C66.9111562,78.6537003 66.9656033,78.8966902 67,79.1458981 L67,79.1458981 Z" id="Path" fill="#000000" fill-rule="nonzero" opacity="0.1"></path>
            <path d="M66.8850476,79.6416683 C66.7101947,79.535512 66.4953947,79.518277 66.3058326,79.5951935 L64.8747067,80.0176917 C64.3732005,80.1513465 63.8844144,80.3287737 63.4139858,80.5479269 C63.1643448,80.6692994 62.9307341,80.8211499 62.7185051,81 C62.0505054,79.8402424 61.8729359,78.4650108 61.7503283,77.1341414 C61.6826828,76.3588572 61.6319486,75.5814605 61.6023537,74.8104013 C61.5691903,74.2555068 61.5805006,73.6988502 61.6361765,73.1457583 C61.7165056,72.512011 61.9004169,71.8930512 62.0145687,71.2635288 C62.0825584,70.8949857 62.1263397,70.5223911 62.145632,70.1481336 C62.2004567,69.3303934 62.1628734,68.5090834 62.033594,67.6997565 C61.9106901,66.839505 61.7140774,65.9913919 61.4459234,65.1647672 C61.3106323,64.7866313 61.1478602,64.4211704 60.9998856,64.0493719 L60.9491515,63.9183975 C60.6819138,63.2369691 60.4636265,62.5373698 60.2959492,61.8249189 C60.2283037,61.5333951 60.2240758,61.2270839 60,61.0285098 C60.2103794,61.0031959 60.4224464,60.9947189 60.6341769,61.0031599 C60.6764554,61.0031599 60.7187339,61.0031599 60.7610123,61.0031599 C61.6294383,61.0577402 62.466089,61.3500772 63.1793404,61.8481563 C64.0979451,62.5104846 64.7961454,63.4334277 65.1833395,64.49722 C65.6293772,65.6865525 65.7033645,66.979397 65.7604405,68.2490041 C65.8745923,70.7445602 65.9450564,73.2415246 65.9718328,75.7398973 C65.9718328,76.2194328 65.992972,76.7306556 66.267782,77.1256914 C66.3448972,77.223048 66.4155141,77.3253731 66.4791743,77.4320026 C66.5785287,77.6432517 66.5637312,77.8777383 66.6440603,78.0910998 C66.7030617,78.2191541 66.7701374,78.3433366 66.844883,78.4628983 C67.0365702,78.829374 67.0513456,79.2630113 66.8850476,79.6416683 L66.8850476,79.6416683 Z" id="Path" fill="#464353" fill-rule="nonzero"></path>
            <path d="M52,55.1068427 C51.6666667,55.0363265 51.3333333,54.9615366 51,54.8931573 L51.6933333,54.9273469 C51.8089063,54.9770735 51.9122653,55.0375707 52,55.1068427 Z" id="Path" fill="#FBBEBE" fill-rule="nonzero"></path>
            <path d="M61.9167046,62.6991657 C61.8761561,62.8443122 61.8356077,62.9894587 61.7910043,63.1260671 C61.6880626,63.4767942 61.5627533,63.8198063 61.4159308,64.1527648 C61.1861587,64.6997551 60.8608642,65.1964532 60.4569589,65.6170364 C60.3235991,65.7648992 60.1599567,65.8787828 59.9784867,65.9500195 C59.8249809,65.9913787 59.666278,66.007223 59.5081242,65.9969786 C58.9674777,65.9969786 58.4268311,65.9884406 57.8861845,65.9713645 C57.4652714,65.9762776 57.0451143,65.9326154 56.6332361,65.8411596 C56.1798835,65.7109593 55.7488416,65.5063854 55.3559586,65.2349597 C53.8414725,64.2488176 52.5966338,62.7461249 52.0634211,60.9659463 C51.9965161,60.7396886 51.9498853,60.4686062 52.0978873,60.2914422 C52.2435277,60.1663433 52.426985,60.1004461 52.6148806,60.1057401 L52.6392097,60.1057401 C53.0750968,60.0460222 53.4950499,59.8942883 53.8739113,59.6596282 C54.1193394,59.527378 54.3171882,59.3145837 54.4375353,59.0534283 C54.519657,58.743891 54.5133103,58.4157375 54.4192885,58.1099763 L53.9692002,55.9583935 C53.9223245,55.6138051 53.7994227,55.2855707 53.6103461,55 C53.7421287,55.0490937 53.8739113,55.0939183 54.015831,55.1323394 C55.2687794,55.488802 56.6393184,55.2732169 57.8679377,55.7406738 C58.3383002,55.9221069 58.8086627,56.2486864 58.9505825,56.756699 C59.1877911,57.6105017 58.3950681,58.496322 58.6221397,59.3501247 C58.7741965,59.9307105 59.3357931,60.2658281 59.8385944,60.5369104 L60.1771743,60.7183435 L61.1158719,61.2199526 L61.2456271,61.2882568 L61.2659013,61.2989293 C61.5619053,61.4568828 61.8741287,61.6532574 61.9775274,61.988375 C62.0216319,62.2265867 62.0005386,62.4730888 61.9167046,62.6991657 L61.9167046,62.6991657 Z" id="Path" fill="#FBBEBE" fill-rule="nonzero"></path>
            <path d="M64.9758505,67.6392996 C64.9398767,68.1704651 64.8075871,68.6911252 64.5851703,69.176923 C64.1589122,70.0171617 63.9303757,70.9401645 63.9163428,71.8781532 C63.7528517,74.6832769 62.6636184,78.0224131 64.2242158,80.378717 C64.2624345,80.4368974 64.3006532,80.4950777 64.3367487,80.5553359 C64.0860048,80.6747192 63.8513621,80.824081 63.6381956,81 C62.9672448,79.8592497 62.7888909,78.5065567 62.6657417,77.1974989 C62.5977973,76.4349209 62.546839,75.6702649 62.5171134,74.9118426 C62.4838034,74.3660422 62.4951637,73.8185087 62.5510855,73.2744815 C62.6317695,72.6511206 62.8164933,72.0423049 62.9311494,71.4230998 C62.9994395,71.0605967 63.0434142,70.6941086 63.0627916,70.3259847 C63.1178585,69.5216465 63.0801093,68.713797 62.9502587,67.9177341 C62.8268119,67.0715813 62.6293306,66.2373679 62.359992,65.4242908 C62.2241032,65.0523521 62.0606121,64.6928807 61.9119838,64.3271757 L61.8610255,64.1983478 C61.620392,64.7308242 61.2797207,65.2143428 60.8567227,65.6237662 C60.7170588,65.7677056 60.545681,65.8785674 60.3556329,65.9479139 C60.1948708,65.9881756 60.028666,66.0035995 59.8630362,65.993627 C59.296833,65.993627 58.7306299,65.9853155 58.1644268,65.9686926 C57.7236169,65.9734752 57.2835988,65.9309716 56.852251,65.8419425 C56.3774683,65.7151969 55.9260508,65.5160512 55.5145961,65.2518276 C53.9285196,64.2918519 52.6248369,62.8290318 52.066419,61.0960887 C51.9963514,60.8758346 51.9475164,60.6119452 52.1025145,60.439482 C52.2550393,60.3177025 52.4471688,60.2535538 52.6439462,60.2587074 L52.6694254,60.2587074 L54.5803609,62.571376 C54.7995283,62.8161541 54.9851118,63.0878795 55.132409,63.3796672 C55.1609283,63.4775746 55.2203896,63.5641324 55.3022699,63.6269337 C55.3687168,63.6566401 55.4417349,63.6695024 55.5145961,63.6643354 C57.3087523,63.6643354 59.699545,63.6643354 61.4937012,63.6643354 C61.4995694,63.3532334 61.4076647,63.0478729 61.2304167,62.7895523 C61.1752119,62.8020195 61.1008978,62.8061753 61.2155539,62.7729294 C61.1118041,62.0984065 60.8890884,61.4466527 60.5573428,60.8467444 C60.5375108,60.8055031 60.5155418,60.7652787 60.4915216,60.726228 C60.3489321,60.5206541 60.2427018,60.2930676 60.1772789,60.0529983 C60.4038071,59.9823339 60.6471805,59.9823339 60.8737088,60.0529983 C61.13487,60.1631254 61.2707587,60.439482 61.3854148,60.6950599 C61.4830849,60.9028469 61.5807549,61.1251789 61.6678087,61.3433552 C61.6678087,61.3662118 61.6890413,61.3911462 61.6975343,61.4140028 C61.8827032,61.8439241 62.0014903,62.2984105 62.0499958,62.76254 C62.0627353,62.9329253 62.1052006,63.1490237 62.2495824,63.2051262 C62.2722878,63.2152792 62.2968239,63.2209289 62.3217733,63.2217492 C62.6275157,63.1122238 62.9705779,63.1943089 63.1901873,63.4295361 C63.3990544,63.6636572 63.5450035,63.9450302 63.6148397,64.2482167 C63.6838664,64.5513217 63.7849108,64.8465814 63.9163428,65.1292333 C64.1902436,65.6403892 63.771961,65.8689548 64.266681,66.1827131 C64.4980452,66.3072518 64.6970871,66.4821333 64.8484548,66.693869 C64.9883947,66.9889392 65.0328451,67.3188152 64.9758505,67.6392996 L64.9758505,67.6392996 Z" id="Path" fill="#000000" fill-rule="nonzero" opacity="0.1"></path>
            <path d="M51.6609194,135.177895 C51.7630783,135.448015 51.8782788,135.715786 52,135.983558 L51.9869584,136 C50.9936262,135.765113 49.9763845,135.519656 48.8917614,135.46798 C47.8853876,135.421003 46.7920701,135.567807 46.1073882,135.962418 C46.0978684,135.876364 46.0768017,135.790797 46.044354,135.706391 C45.9784324,135.609704 45.9862504,135.502832 46.0660899,135.409259 C46.3747402,135.10508 47.1202827,135.044009 47.6941114,135.02052 C49.0235081,134.966414 50.3604061,135.019452 51.6609194,135.177895 L51.6609194,135.177895 Z" id="Path" fill="#000000" fill-rule="nonzero" opacity="0.1"></path>
            <path d="M59.9975495,62.9858382 C60.0976463,62.9858382 60.061441,62.9858382 60.0124575,63.002933 C59.9634739,63.0200278 59.8825446,63.0200278 59.9975495,62.9858382 Z" id="Path" fill="#000000" fill-rule="nonzero" opacity="0.1"></path>
            <path d="M64,132.491189 C63.1392794,133.034039 62.3304521,133.653544 61.5835947,134.341985 C61.36674,134.57171 61.1081124,134.75897 60.8212304,134.893977 C60.5249692,134.988353 60.2120096,135.020235 59.9025332,134.987567 C58.6883812,134.93895 57.4781255,134.820328 56.2779252,134.632306 L56.2779252,134.632306 C56.1125837,134.560422 56.0042311,134.400325 56,134.221654 C56.0154403,133.979084 56.2702051,133.839653 56.4940893,133.734603 C58.4800965,132.88465 60.637877,132.516019 62.7802171,132.219968 C62.9981457,132.183971 63.2103409,132.119753 63.411339,132.028968 C63.6525935,131.933467 63.677684,132.090088 63.7973462,132.265808 C63.8569226,132.347603 63.9248301,132.423126 64,132.491189 L64,132.491189 Z" id="Path" fill="#000000" fill-rule="nonzero" opacity="0.1"></path>
            <path d="M48.0392662,60.7499241 C48.3491629,61.0284971 48.7033305,61.2539073 49.0174435,61.5239742 C49.8606998,62.2448615 50.3919513,63.2528278 50.9147702,64.235276 C50.6047307,64.3483255 50.2694272,64.3711686 49.9471336,64.3011978 C49.7813703,65.2446027 49.8093536,66.212289 50.0293511,67.1443433 C49.6075227,67.4362657 49.2798769,67.8466191 49.0870121,68.324557 C48.9371405,68.8095889 48.8340656,69.3080897 48.7792236,69.8131148 C48.4756513,72.0261041 48.1706736,74.2390934 47.8642905,76.4520828 C47.858131,76.6686852 47.7843555,76.877801 47.6534764,77.0496324 C47.5949687,77.097315 47.5412992,77.1507399 47.4932577,77.2091207 C47.4287429,77.3521747 47.4032704,77.5100121 47.4194728,77.6663206 C47.4068239,77.821556 47.3056332,78.0065624 47.1517389,77.9852973 C47.0769597,77.9672607 47.0106692,77.9236837 46.9641144,77.8619597 C46.8101702,77.6975127 46.6691985,77.5211845 46.5424862,77.3345849 C45.2986832,79.7417956 44.6999712,82.3361392 44.0422313,84.9687601 C43.5721159,86.8443429 43.1020005,88.7411909 43.0788109,90.6763161 C43.0851601,91.5917922 43.1421686,92.5061969 43.2495703,93.4152625 L43.4350867,95.2823394 C43.5847647,96.7836563 43.7344427,98.2870997 43.8967696,99.7884166 C44.0021766,100.741094 44.1075836,101.702277 44.4469943,102.599664 C44.9529481,103.962758 44.3921826,105.500226 44.607213,106.942 C44.7758643,108.071178 45.1110586,109.238632 44.7737561,110.327406 C44.6388351,110.763341 44.4027233,111.160998 44.2256395,111.582048 C43.7913625,112.628291 43.7470916,113.791493 43.709145,114.924923 C43.6408727,115.918408 43.6776207,116.916401 43.8187683,117.902039 C44.0000684,118.920638 44.4069396,119.917971 44.3268303,120.947203 C44.2150988,122.412369 43.1441633,123.664884 43.0134586,125.127924 C42.9101597,126.295379 43.4182216,127.422429 43.9642301,128.45804 C44.3668849,129.221458 43.8061195,130.208159 43.5931973,131.048131 C43.1715691,132.694051 43.87358,134.416525 44.7337014,135.877438 C44.7556336,135.927585 44.7944733,135.96827 44.8433248,135.99227 C44.9424074,136.02842 45.0309493,135.930601 45.0963017,135.847667 C45.7435009,135.009821 46.8903295,134.692971 47.9422917,134.784411 C48.994254,134.875851 49.9787557,135.313913 50.9442842,135.747721 L52.3124675,132.674912 C52.544363,132.153917 52.7804748,131.590391 52.664527,131.031119 C52.5823096,130.631335 52.3272245,130.29322 52.1459244,129.92746 C51.7242963,129.064096 51.7032148,128.058256 51.6989986,127.090694 L51.6737009,121.62556 C52.7404201,120.273099 53.3918356,118.665456 53.8029231,116.985513 C54.4335977,119.348435 54.4770424,121.831753 53.9294115,124.215651 C53.8280878,124.576083 53.7575586,124.944607 53.7185974,125.317183 C53.6363799,126.833386 54.8148306,128.115672 55.1289436,129.599977 C55.1593827,129.713529 55.1679701,129.831913 55.1542413,129.948725 C55.1188892,130.092382 55.0597316,130.228984 54.9792656,130.352762 C54.4142839,131.386246 54.47542,132.638761 54.5576375,133.816849 C56.035989,134.076468 57.5296685,134.237722 59.029004,134.299567 C59.3670395,134.333611 59.7084085,134.298164 60.0324791,134.195368 C60.3459303,134.044293 60.6284133,133.835093 60.8651947,133.578679 C61.8223816,132.670537 62.8733207,131.868513 64,131.186354 C63.370836,130.133351 62.4902503,129.256058 61.438609,128.634541 C61.7780196,128.130558 62.5517073,128.170961 63.0028494,127.766924 C63.2293809,127.540884 63.3772953,127.246953 63.4244776,126.929079 C63.5931288,126.095487 63.3844229,125.22787 63.175717,124.409163 C62.7709539,122.797268 62.3640828,121.178993 61.7000184,119.656411 C61.3996986,119.030655 61.1350475,118.388112 60.9073575,117.731918 C60.3550246,115.898865 60.7408144,113.904198 60.3234025,112.030741 C60.1884815,111.431065 59.971343,110.812251 60.1231291,110.214701 C60.3550246,109.293922 61.3880136,108.747408 61.6156928,107.824502 C62.4315433,104.539043 62.577005,101.134498 63.0407959,97.78099 C63.1445354,97.1403839 63.2002078,96.4927951 63.2073391,95.8437383 C63.2073391,95.1653812 63.087175,94.4934037 63.0386878,93.8171731 C62.8489551,91.1101244 63.7069684,88.4094552 63.4877218,85.7045329 C63.3473335,84.0376082 62.8029236,82.4310408 61.9023999,81.0262083 C60.3529165,78.6126181 61.4343927,75.1974412 61.5967195,72.326651 C61.6089216,71.3667317 61.8351649,70.4218933 62.2586757,69.5621865 C62.4813561,69.0655457 62.6134701,68.5324846 62.6486818,67.9885682 C62.7136932,67.6532495 62.6723883,67.305795 62.5306259,66.9954875 C62.3822777,66.7778508 62.1850888,66.5986157 61.9551034,66.4723657 C61.4639066,66.149136 61.8792104,65.9152198 61.6072602,65.3920981 C61.4764486,65.1029548 61.3761126,64.8007494 61.3079042,64.4904573 C61.2389141,64.1806806 61.0939417,63.8933274 60.8862761,63.6547384 C60.6682306,63.4140046 60.3276116,63.329998 60.0240465,63.4420873 C59.8237731,63.4420873 59.7689615,63.1741469 59.7520963,62.9721283 C59.6951765,62.2321024 59.3916043,61.5367333 59.0943564,60.8562497 C58.9805168,60.5946888 58.8455958,60.3118628 58.5862945,60.1991577 C58.3604966,60.1279095 58.1185141,60.1279095 57.8927162,60.1991577 C57.9579873,60.4457664 58.0641935,60.6794429 58.2068291,60.8902739 C58.5722458,61.5369343 58.8152978,62.2464849 58.923597,62.9827609 C58.7127829,63.0465562 59.1344111,62.9827609 58.923597,62.9827609 C59.1123633,63.248063 59.209403,63.5686187 59.1997635,63.8950342 C57.4204926,63.8950342 55.0467261,63.8950342 53.2653472,63.8950342 C53.1929809,63.9007938 53.1203662,63.8876092 53.0545331,63.856757 C52.973285,63.7920169 52.9136835,63.7036913 52.8837737,63.6037021 C52.7388147,63.3049847 52.5544351,63.0274359 52.3356571,62.7786158 L50.2485977,60.1821456 C50.2022534,60.1142954 50.1409086,60.05824 50.0694057,60.0184043 C49.9832509,59.9938652 49.892043,59.9938652 49.8058881,60.0184043 C49.129175,60.1183503 48.6295456,60.4033028 48.0392662,60.7499241 Z" id="Path" fill="#6C63FF" fill-rule="nonzero"></path>
            <path d="M57.0095352,95.0001871 C57.4164063,94.9952739 57.8173126,95.0872014 58.170441,95.2663819 C58.5270048,95.452321 58.7463246,95.7912713 58.7473182,96.1579233 C58.7210965,96.5572155 58.375447,96.8741141 58.125149,97.2142519 C57.970234,97.4215329 57.8468043,97.6459971 57.7580453,97.8818516 C57.7306773,97.9354943 57.7239762,97.9956256 57.738975,98.0529768 C57.7675805,98.1332578 57.8653159,98.1733983 57.9487485,98.2093134 C58.5673296,98.4572513 58.9744405,98.9939604 59,99.5952166 C58.9785459,100.419153 58.0703218,101.086753 58.1203814,101.91914 C58.1431108,102.09246 58.1765339,102.264547 58.2205006,102.434628 C58.3295503,103.144078 58.2182903,103.866453 57.8986889,104.524046 C57.6102503,105.18742 57.2169249,105.810654 56.9070322,106.467691 C56.0703218,108.252886 55.8891538,110.230333 55.9535161,112.171865 C56.0035757,113.490163 55.476758,114.745082 55,116 C55.2694149,113.472234 55.3410999,110.930973 55.2145411,108.394434 C55.1811681,107.705708 55.0834327,107.055009 55.1191895,106.36417 C55.1764005,105.267701 55.8676996,104.270527 56.0441001,103.195185 C56.1442193,102.580401 56.0774732,101.955055 56.0941597,101.333933 C56.1275328,100.066339 56.5160906,98.8156461 56.5423123,97.5438264 C56.5756853,96.6459471 56.4827175,95.7206032 57.0095352,95.0001871 Z" id="Path" fill="#000000" fill-rule="nonzero" opacity="0.1"></path>
            <path d="M47.9395111,60.5702296 C47.5647979,60.7826854 47.214173,61.0461446 46.8953465,61.3548139 C46.5621956,61.7312931 46.2835677,62.1654044 46.0698156,62.6410175 C45.8095367,63.1801892 45.5760855,63.7355603 45.3705646,64.3045076 C45.1048115,65.041931 44.884293,65.8586704 45.0671161,66.6282489 C45.2329762,67.3249425 45.7022848,67.8672917 46.0264659,68.4868132 C46.3506469,69.1063346 46.5410091,69.8330397 46.7897992,70.5125839 C47.1215193,71.4193575 47.5757498,72.2639646 47.9037004,73.1728818 C48.231651,74.0817991 48.4295522,75.1021873 48.2222271,76.047547 C48.1619144,76.3262245 47.7642271,76.5427354 47.7642271,76.8278439 C47.7642271,77.2994519 48.3635852,77.8117897 48.7612724,77.9489848 C49.2192724,78.1097602 49.7187374,77.8696689 50.0938073,77.5202502 C50.7817497,76.9007288 51.2001695,75.9725185 51.5092723,75.0378771 C52.0068526,73.5373062 52.2726057,71.9445573 52.5119719,70.3625268 C52.6853711,69.2006562 52.8474616,68.0366419 52.9398155,66.8661966 C53.0246303,65.8115096 53.0510172,64.7225238 52.8059966,63.7107102 C52.5773634,62.782021 52.1326304,61.9407107 51.5186962,61.275498 C51.0286551,60.7395798 50.2257415,60.0193057 49.5132971,60.0000127 C48.9497498,59.997869 48.4220131,60.2679718 47.9395111,60.5702296 Z" id="Path" fill="#464353" fill-rule="nonzero"></path>
            <path d="M54.9993569,86.7202469 C54.9509027,87.0163492 54.7710888,87.2769363 54.5074177,87.4331677 C54.2470944,87.5866945 53.9634456,87.6994067 53.6669297,87.7671486 C53.0757202,87.9341391 52.4492147,88.0882841 51.8513872,87.9405618 C51.3815568,87.7920922 50.9477433,87.552451 50.5763161,87.2362046 L43.8965319,82.2735907 C43.359916,81.904446 42.8665137,81.4794473 42.4251263,81.006176 C42.171718,80.7006242 41.9388693,80.3795366 41.7280286,80.0449104 C41.4488776,79.6618254 41.2302755,79.24041 41.079463,78.7946229 C41.0256075,78.5983989 40.9989009,78.3960916 41.0000468,78.1930291 C40.998274,78.0009738 41.0468581,77.8116358 41.1412312,77.6428169 C41.3022696,77.3816267 41.6464064,77.3281041 41.9287751,77.2553134 C42.8765018,77.0175148 43.8602259,76.9450248 44.8340842,77.0412231 C45.0098236,77.0330321 45.1699465,77.1386675 45.2267531,77.3002724 C45.3745555,77.5636035 45.5025038,77.8376391 45.6348641,78.1116747 C45.8380129,78.5789096 46.1027348,79.0186064 46.422408,79.4197667 C46.7304041,79.7447001 47.0582176,80.0514006 47.4040804,80.3382142 C48.1100021,80.9804852 48.6879755,81.7512103 49.4402234,82.3420997 C50.3115955,83.0250478 51.3704781,83.4339603 52.3631805,83.9370726 C53.3558829,84.4401849 54.3353493,85.0931604 54.8339065,86.0672714 C54.9495694,86.2661426 55.0067965,86.491998 54.9993569,86.7202469 L54.9993569,86.7202469 Z" id="Path" fill="#FBBEBE" fill-rule="nonzero"></path>
            <path d="M61.9999998,51.4993092 C62.0005339,54.4104258 59.7322772,56.8176719 56.8261518,56.9901891 C53.9200264,57.1627062 51.3828767,55.0407248 51.0389644,52.1499922 C50.6950521,49.2592596 52.6635277,46.6012873 55.5290175,46.0872107 C58.3945074,45.5731342 61.1642456,47.3810584 61.8467347,50.2110495 C61.94868,50.6328816 62.0001292,51.0653342 61.9999998,51.4993092 L61.9999998,51.4993092 Z" id="Path" fill="#000000" fill-rule="nonzero" opacity="0.1"></path>
            <path d="M61.9999998,51.4993092 C62.0005339,54.4104258 59.7322772,56.8176719 56.8261518,56.9901891 C53.9200264,57.1627062 51.3828767,55.0407248 51.0389644,52.1499922 C50.6950521,49.2592596 52.6635277,46.6012873 55.5290175,46.0872107 C58.3945074,45.5731342 61.1642456,47.3810584 61.8467347,50.2110495 C61.94868,50.6328816 62.0001292,51.0653342 61.9999998,51.4993092 L61.9999998,51.4993092 Z" id="Path" fill="#FBBEBE" fill-rule="nonzero"></path>
            <path d="M45,77.9149137 C44.7829627,78.0445363 44.4612144,78.0019206 44.1927735,77.9450998 C43.1342407,77.7249189 41.9652853,77.5668858 41.0000404,77.9894911 C40.9985104,77.8302016 41.0404397,77.6731658 41.1218859,77.5331485 C41.260866,77.3165189 41.5578644,77.2721276 41.8015554,77.2117554 C42.6194665,77.0145267 43.4684442,76.9544039 44.3089075,77.0341902 C44.4605749,77.0273967 44.5987649,77.11501 44.6477903,77.2490441 C44.7753473,77.4603467 44.8857698,77.6876302 45,77.9149137 Z" id="Path" fill="#000000" fill-rule="nonzero" opacity="0.1"></path>
            <path d="M41.5627045,71.6708052 C41.2944384,72.5391932 41.0741549,73.4314619 40.5485278,74.1674207 C40.3747532,74.3609536 40.2439517,74.5888011 40.1646674,74.8360795 C40.1586955,75.0186719 40.1286305,75.1996901 40.0752454,75.3744801 C40.0010905,75.522106 39.8440567,75.6197997 39.780807,75.7717676 C39.6870229,75.9888646 39.8091603,76.2689197 39.6848419,76.4729909 C39.6266362,76.5549082 39.5568501,76.6280286 39.4776445,76.6900879 C39.1810251,76.9636301 39.1068702,77.3999951 39.1003272,77.8037955 C39.0937841,78.2075959 39.1330425,78.6200802 39,79 C40.1515812,78.3161444 41.6172301,78.5202156 42.9258451,78.8111256 C43.2900763,78.8914515 43.7415485,78.9522387 43.9770992,78.6613287 C44.2126499,78.3704187 44.0774264,77.988328 44.1101418,77.6388018 C44.1537623,77.1828981 44.4678299,76.8051493 44.6619411,76.390494 C44.8800436,75.9237355 44.9541985,75.4027027 45.1221374,74.9164054 C45.4689204,73.8938785 46.2126499,73.060226 46.6902944,72.0941444 C46.8671117,71.7618973 46.9725798,71.3966784 47,71.0216852 C46.9835304,70.5356383 46.8559817,70.0597215 46.6270447,69.6300934 C46.1731441,68.6296066 45.6331449,67.6700792 45.0130862,66.762242 C44.736096,66.3562706 44.2584515,65.605115 43.8287895,66.254235 C43.4798255,66.7774388 43.261723,67.4439266 43.0043621,68.0170627 C42.4497554,69.2047232 41.9683121,70.424895 41.5627045,71.6708052 L41.5627045,71.6708052 Z" id="Path" fill="#464353" fill-rule="nonzero"></path>
            <path d="M62,62.9899304 C60.6005859,63.0780676 59.2324074,62.5841209 58.2765091,61.6456568 C58.1970256,61.579512 58.1395907,61.4941933 58.1108161,61.3995222 C58.0976652,61.2764642 58.1354348,61.1533684 58.2166755,61.054513 C58.4928306,60.6653258 58.9691981,60.4086726 59.1901221,59.9900334 C59.4110462,59.5713942 59.3351036,59.0896436 59.3558152,58.6310338 C59.3926359,57.8084814 59.7470349,56.9943438 59.7769517,56.1844137 C59.7876018,55.9771353 59.7706005,55.7694427 59.7263232,55.5659216 C59.6204039,55.2636766 59.555482,54.9506863 59.5330147,54.633976 C59.5629315,54.0175877 60.1704727,53.5379407 60.2717295,52.9299672 C60.4029032,52.1558003 59.701009,51.4826116 58.9945123,51.0366241 C58.4557661,50.6950789 57.8709985,50.4186055 57.2547354,50.2140717 C56.8762027,50.0901279 56.4843075,50.0033865 56.0856789,49.9553148 C55.3424888,49.863528 54.586005,49.9408471 53.8833422,50.1804122 C53.5925093,50.2807267 53.3171281,50.4150814 53.0640821,50.580118 C52.9133637,50.6672521 52.7878486,50.7863208 52.6981767,50.9272309 C52.6244145,51.0858899 52.5913524,51.2578765 52.6015224,51.4300187 C52.5877146,52.290438 52.6935741,53.2055538 52.2448221,53.9544762 C52.0146929,54.3562857 51.6234732,54.6823615 51.4324659,55.1073118 C51.3542958,55.2841164 51.3054304,55.4705964 51.2874845,55.6605888 C51.2644518,55.8576365 51.252929,56.0556668 51.2529651,56.2538363 C51.2391574,57.3624939 51.2529651,58.5321592 51.8697115,59.4935568 C52.0873437,59.7842216 52.2848735,60.0870466 52.4611436,60.4002577 C52.6349553,60.7224433 52.6131684,61.1040424 52.4036113,61.407937 C52.2790118,61.5443032 52.1214472,61.6523309 51.9433528,61.7234942 C51.0196881,62.1286723 49.9531192,62.1637387 49,61.8202651 C50.1290606,60.8422096 50.4757399,59.3263827 49.8698885,58.0167491 C49.7036395,57.7584468 49.5956571,57.4723264 49.5523101,57.1752633 C49.5753968,56.9076686 49.6534703,56.6464525 49.7824394,56.4053037 C50.0978891,55.6147765 50.1467877,54.7559426 49.9228182,53.9397502 C49.7824394,53.4390662 49.5385024,52.9552118 49.4947778,52.4398017 C49.4582583,52.0507615 49.476822,51.6590394 49.5500089,51.2743438 C49.8071681,49.8709686 50.9032489,48.7178422 52.3875022,48.2891728 C52.5048681,48.2534097 52.6176314,48.2197502 52.7465038,48.1902982 C53.3048165,48.0769938 53.875262,48.021248 54.4471588,48.0241048 C55.724376,47.9862379 57.0200035,47.9525785 58.2511949,48.2576171 C58.9740291,48.4306365 59.6464947,48.7466198 60.2211011,49.1832515 C60.6289991,49.4967159 60.9546028,49.8899865 61.1738361,50.3339834 C61.2936179,50.5897624 61.3838575,50.8562753 61.4430873,51.1291875 C61.496017,51.354285 61.535139,51.5814862 61.5742609,51.8086873 C61.8527173,53.4264439 62.1311737,55.0757561 61.834307,56.6914089 C61.7169411,57.3225233 61.512126,57.9536377 61.4200743,58.5973743 C61.196849,60.0804931 61.5995751,61.5551971 62,62.9899304 Z" id="Path" fill="#464353" fill-rule="nonzero"></path>
            <circle id="Oval" fill="#FFFFFF" fill-rule="nonzero" cx="53.5" cy="63.5" r="1"></circle>
            <circle id="Oval" fill="#FFFFFF" fill-rule="nonzero" cx="60.5" cy="63.5" r="1"></circle>
            <path d="M54,43 L53,42.1479771 C53.0633902,42.1139046 53.1327832,42.082203 53.2075,42.0531825 C53.3518849,42.0130193 53.5210047,41.994824 53.69,42.0012711 L54,43 Z" id="Path" fill="#000000" fill-rule="nonzero" opacity="0.1"></path>
            <path d="M56,42.1639812 L55.3628692,43 L55,42.0828749 C55.1548456,42.0238594 55.3224147,41.9957454 55.4908579,42.0005208 C55.6696496,42.0294683 55.8417329,42.0847157 56,42.1639812 L56,42.1639812 Z" id="Path" fill="#000000" fill-rule="nonzero" opacity="0.1"></path>
            <g id="Group" opacity="0.1" transform="translate(49.000000, 49.000000)" fill="#000000" fill-rule="nonzero">
                <path d="M3.47413793,11.7812121 C3.35278235,11.9187125 3.1993199,12.0276387 3.02586207,12.0993939 C2.23101999,12.4593081 1.32434557,12.5310022 0.477413793,12.3009091 C0.378957433,12.4142489 0.272629924,12.5212537 0.159137931,12.6212121 C1.08744321,12.9675425 2.12624449,12.9321845 3.02586207,12.5236364 C3.1993199,12.4518811 3.35278235,12.342955 3.47413793,12.2054545 C3.63010412,11.9912619 3.68227505,11.7243344 3.61758621,11.4715152 C3.59519618,11.5837042 3.5461435,11.6896063 3.47413793,11.7812121 L3.47413793,11.7812121 Z" id="Path"></path>
                <path d="M1.04224138,4.67727273 C1.11544269,4.95520957 1.158254,5.23953286 1.17,5.52575758 C1.1958333,5.09783888 1.15275462,4.66869052 1.04224138,4.2530303 C0.905517241,3.74818182 0.667931034,3.26030303 0.625344828,2.74060606 C0.625344828,2.67484848 0.625344828,2.60909091 0.614137931,2.54121212 C0.603378635,2.74909796 0.607122396,2.95742911 0.625344828,3.16484848 C0.667931034,3.68454545 0.905517241,4.17242424 1.04224138,4.67727273 Z" id="Path"></path>
                <path d="M12.6436207,7.45181818 C12.7387672,6.89086035 12.7792822,6.32281877 12.7646552,5.75484848 C12.7568015,6.18129847 12.7163511,6.60665163 12.6436207,7.02757576 C12.5293103,7.66393939 12.3298276,8.30030303 12.2401724,8.94939394 C12.1939363,9.29757428 12.1766992,9.6486562 12.1886207,9.99939394 C12.1947408,9.79012367 12.2119463,9.58127552 12.2401724,9.37363636 C12.3298276,8.72454545 12.5293103,8.09454545 12.6436207,7.45181818 Z" id="Path"></path>
                <path d="M0.997413793,8.36181818 C0.880028494,8.15296419 0.785403221,7.93334827 0.715,7.70636364 C0.69597077,7.78280539 0.686937581,7.86117023 0.688103448,7.93969697 C0.730321899,8.23923091 0.835493012,8.52773111 0.997413793,8.78818182 C1.16197474,9.14377943 1.25690684,9.52471162 1.27758621,9.91242424 C1.31815099,9.38171474 1.22200845,8.8496167 0.997413793,8.36181818 L0.997413793,8.36181818 Z" id="Path"></path>
                <path d="M10.6062069,6.30212121 C10.6258906,6.39891116 10.6401062,6.49662567 10.6487931,6.59484848 C10.6487931,6.5630303 10.6487931,6.53333333 10.6487931,6.50151515 C10.6591659,6.29251275 10.6426073,6.08309261 10.5994828,5.87787879 C10.5501724,5.65515152 10.4694828,5.43454545 10.4313793,5.20969697 C10.4202536,5.25999837 10.4135068,5.31107876 10.4112069,5.36242424 C10.43527,5.6820358 10.5007612,5.99763537 10.6062069,6.30212121 Z" id="Path"></path>
                <path d="M9.19413793,12.0081818 C9.15962972,11.9740836 9.12743881,11.9379506 9.09775862,11.9 C9.0426039,11.985009 9.01967916,12.085258 9.03275862,12.1842424 C9.06078408,12.279701 9.11672369,12.3657293 9.19413793,12.4324242 C10.1251499,13.3786939 11.4577086,13.8767491 12.8206897,13.7878788 C12.7825862,13.6478788 12.7444828,13.51 12.7086207,13.3636364 C11.3838057,13.4212831 10.0990069,12.925766 9.19413793,12.0081818 L9.19413793,12.0081818 Z" id="Path"></path>
                <path d="M11.132931,3.24969697 C11.1318755,3.24195127 11.1318755,3.23410934 11.132931,3.22636364 C11.2606897,2.44575758 10.577069,1.7669697 9.88896552,1.31727273 C9.3642453,0.972886724 8.79470181,0.694113798 8.19448276,0.487878788 C7.82580498,0.362904095 7.4441126,0.275441243 7.05586207,0.226969697 C6.3320206,0.134419516 5.59523147,0.212381664 4.91086207,0.453939394 C4.62760087,0.55508825 4.35938912,0.690560441 4.11293103,0.856969697 C3.96613647,0.944828495 3.84388912,1.06488758 3.75655172,1.2069697 C3.68470994,1.36694829 3.65250855,1.5403654 3.66241379,1.71393939 C3.66241379,1.86030303 3.66241379,2.00666667 3.66241379,2.15515152 L3.66241379,2.13818182 C3.65250855,1.96460783 3.68470994,1.79119071 3.75655172,1.63121212 C3.84388912,1.48913 3.96613647,1.36907092 4.11293103,1.28121212 C4.35938912,1.11480287 4.62760087,0.979330674 4.91086207,0.878181818 C5.59523147,0.636624088 6.3320206,0.55866194 7.05586207,0.651212121 C7.4441126,0.699683667 7.82580498,0.787146519 8.19448276,0.912121212 C8.79470181,1.11835622 9.3642453,1.39712915 9.88896552,1.74151515 C10.4605172,2.10636364 11.0231034,2.63242424 11.132931,3.24969697 Z" id="Path"></path>
                <path d="M3.31948276,4.26575758 C3.09534483,4.67090909 2.71431034,4.99969697 2.52827586,5.42818182 C2.45214087,5.606457 2.40454761,5.79448797 2.38706897,5.98606061 C2.36463593,6.1847473 2.3534131,6.38442469 2.35344828,6.58424242 C2.35344828,6.76454545 2.35344828,6.9469697 2.35344819,7.12939394 C2.35344828,7.08909091 2.35344828,7.04878788 2.35344828,7.00848485 C2.3534131,6.80866711 2.36463593,6.60898972 2.38706897,6.41030303 C2.40454761,6.21873039 2.45214087,6.03069942 2.52827586,5.85242424 C2.71431034,5.42818182 3.08637931,5.09515152 3.31948276,4.69 C3.68034483,4.05363636 3.67362069,3.32181818 3.66689655,2.59424242 C3.69666611,3.16987634 3.57740491,3.74367885 3.31948276,4.26575758 L3.31948276,4.26575758 Z" id="Path"></path>
            </g>
            <path d="M62,49.7049876 C61.9707113,49.7443516 61.9363966,49.7801525 61.8978328,49.8115795 C61.8227206,49.869984 61.7387799,49.9174369 61.6488003,49.9523613 C61.0294118,50.2057685 61.0549536,49.3791783 60.7314241,49.0956035 C60.5239516,48.9510061 60.2693351,48.8798278 60.0119969,48.8944866 C59.3890609,48.8649895 58.7654154,48.8388443 58.1410604,48.8160511 C57.1002322,48.77985 56.0615325,48.7617495 55.0228328,48.7838724 C54.5247678,48.791917 54.0281218,48.8113583 53.5328947,48.8421963 C52.9582043,48.8783973 52.3409443,48.9487882 51.8513932,49.2062178 C51.6838074,49.2933345 51.5321628,49.4053832 51.4022833,49.5380606 C51.2852167,49.6587307 51.1617647,49.8115795 51,49.8397359 C51.2378486,48.4980975 52.2516221,47.3956991 53.6244195,46.9858877 C55.8892274,45.3919222 59.0813878,45.7689497 60.8612616,47.8406343 C61.2385296,48.1403089 61.539683,48.5162788 61.7424536,48.9407435 C61.8564376,49.1862496 61.9427618,49.4424083 62,49.7049876 Z" id="Path" fill="#000000" fill-rule="nonzero" opacity="0.1"></path>
            <path d="M61.5633902,49.952233 C60.9613291,50.2063226 60.9861564,49.3775065 60.6716778,49.0931682 C60.4700093,48.9481814 60.2225157,48.8768114 59.9723766,48.8915097 C57.8758328,48.7571028 55.7731214,48.7395972 53.6745281,48.8390786 C52.9276413,48.8874766 52.1083417,48.9963721 51.6055897,49.5368167 C51.4773155,49.6739444 51.3428345,49.8514038 51.1504232,49.845354 C51.0862861,49.4420372 51.0407695,49.0225877 51.0097354,48.609188 C50.9909747,48.4543293 50.9993702,48.2974886 51.0345627,48.1453736 C51.0862861,47.9719474 51.2042156,47.8247367 51.2642148,47.6553436 C51.3232782,47.4398969 51.3442676,47.2162196 51.326283,46.993904 C51.3447365,45.3205618 52.2597731,43.7785089 53.7386652,42.9284704 C53.9211695,42.8414821 54.0903744,42.7301759 54.2414172,42.5977506 C54.2938773,42.5368648 54.3513053,42.4802156 54.4131391,42.4283575 C54.5326285,42.3565879 54.6725878,42.3240739 54.8124442,42.3355946 C54.9117532,42.3355946 55.019338,42.3355946 55.1062334,42.3355946 C55.3737986,42.3068651 55.635371,42.2388776 55.8820853,42.1339362 C56.1098655,42.0385598 56.3563622,41.993124 56.6041448,42.0008417 C56.8671501,42.0476244 57.1202873,42.1369113 57.3531006,42.2650142 C57.4650227,42.3175774 57.5821876,42.3587975 57.7027511,42.3880258 C57.8910245,42.4303741 58.0855047,42.4283575 58.2737781,42.464656 C58.5787368,42.5403176 58.8683457,42.6657755 59.1303186,42.8357075 C59.4429703,43.0000453 59.7323022,43.2034181 59.990997,43.4406827 C60.2722819,43.7540107 60.4974899,44.1112243 60.6571952,44.4973729 C60.9312115,45.0308395 61.1395517,45.5940151 61.2778767,46.1751709 C61.4454607,47.0100367 61.3627032,47.9134664 61.7599394,48.6717021 C62.0020052,49.1476159 62.2233816,49.675961 61.5633902,49.952233 Z" id="Path" fill="#FED253" fill-rule="nonzero"></path>
            <path d="M51,49 C51,49 55.419186,46.9988102 62,48.6583335 C62,48.6583335 54.5707364,47.8169 51,49 Z" id="Path" fill="#000000" fill-rule="nonzero" opacity="0.1"></path>
            <path d="M1.39147981,69.4724859 C0.784874522,68.4839524 -0.127184498,67.5788665 0.0147869534,66.4576727 C1.68402705,66.6481045 3.26722384,66.2437044 4.79664356,65.5397487 C6.32606328,64.8357931 7.7457778,63.9221485 9.1783988,63.0256213 C9.74198244,62.6725737 10.303415,62.325945 10.8626965,62.0049926 C11.7489425,61.5000274 12.6287353,60.9351511 13.5300389,60.4408844 C14.8206884,59.734789 16.137151,59.1570747 17.5869807,59.0458112 C17.8495976,59.0254198 18.1131219,59.0189916 18.376428,59.026554 C20.1618265,59.0607889 22.0117576,59.5379382 23.5820479,58.7419762 L23.6788466,58.6906238 C24.5693948,58.2049158 25.2168706,57.3789982 25.9805049,56.7092774 C26.5295119,56.236989 27.1272615,55.8238658 27.7637524,55.4768201 C28.9231859,54.8349152 30.1794182,54.3213913 31.3646647,53.7158611 C31.6680504,53.5604155 31.9561212,53.3770272 32.2250977,53.1681023 L32.4272995,53.007626 L32.4724722,52.9691118 C32.5219471,52.9284578 32.571422,52.8878038 32.6187458,52.8450101 L32.7112424,52.7637022 L32.80589,52.6781149 L32.8790268,52.609645 L32.9973364,52.4983815 L33.0102429,52.4834037 L33.197387,52.299391 L33.2726749,52.2245021 L33.403891,52.0897021 L33.4813299,52.0126735 C33.612546,51.8778735 33.743762,51.7409338 33.8771291,51.6082734 C34.0104963,51.4756131 34.1911872,51.2958797 34.3525184,51.1482416 L34.3525184,51.1482416 L34.5073963,51.0113019 L34.5525691,50.9727876 L34.6773319,50.8700828 L34.7354111,50.8208701 L34.8580228,50.7267241 L34.9182531,50.6796511 C34.9784834,50.6347177 35.0408648,50.5919241 35.1032462,50.5491304 C35.1606523,50.5095746 35.2210648,50.4745207 35.2839372,50.4442859 L34.8816847,49.4750096 L36.0389672,49 L52,87.5249904 L50.8405665,88 L41.711372,65.9612663 L41.6468395,66.0254567 C39.5320453,68.101244 36.9416073,69.6344929 34.0986907,70.4931146 L34.081482,70.4931146 C32.491832,70.9702639 30.7128867,71.3083338 29.3749133,72.1941625 C28.9004826,72.5008974 28.4882109,72.8935646 28.1595516,73.3517309 C27.8454936,73.796785 27.6260831,74.3038898 27.2991186,74.7318264 C27.2367372,74.8109947 27.1679025,74.8880233 27.0990679,74.9607725 C26.7078685,75.3465079 26.2750268,75.6880758 25.8084183,75.9792615 L25.6040655,76.1183409 C24.2181505,77.0883209 22.7742647,77.9736412 21.2803895,78.769408 C20.4183213,79.2157387 19.5194836,79.5879714 18.5936873,79.8820431 C17.9203985,80.0960114 17.2255988,80.2522083 16.5523099,80.4640369 C16.0994065,80.6004475 15.6595753,80.7765933 15.2379985,80.9903989 C14.0979247,81.583091 13.2224341,82.5117134 12.3942673,83.5023866 C11.6693524,84.3710978 10.981006,85.2911615 10.1851055,86.0828441 C9.6860543,86.5749712 8.92672214,87.0414221 8.32441901,86.7525649 L8.20180731,86.6819553 C8.22116705,86.6498601 8.23622463,86.6177649 8.25343329,86.5835299 C8.72882254,85.5928568 8.14372808,84.3689581 7.35643185,83.5751358 C7.27469071,83.4916882 7.19079849,83.4103802 7.10475518,83.3333516 C7.01871188,83.256323 6.86383393,83.1193833 6.74122222,83.0123992 C6.06793337,82.4368245 5.35162287,81.9019038 4.88483795,81.1594338 C4.52856338,80.5357546 4.28673859,79.8539739 4.17067852,79.1459922 C3.95557027,78.1382016 3.81144773,77.1004554 3.26077059,76.2424425 C2.89938871,75.6754266 2.36161806,75.1918582 1.97012103,74.6483788 C1.722648,74.3267666 1.5599663,73.9486973 1.49688286,73.5485818 C1.40868847,72.8531848 1.73350195,72.1727657 1.85611365,71.4795084 C1.89259021,71.2906328 1.90774173,71.0982952 1.90128639,70.9060734 C1.85635167,70.3929325 1.68091404,69.899598 1.39147981,69.4724859 L1.39147981,69.4724859 Z" id="Path" fill="url(#linearGradient-2)" fill-rule="nonzero"></path>
            <polygon id="Rectangle" fill="#D6D8E1" fill-rule="nonzero" transform="translate(43.371971, 69.369042) rotate(157.600000) translate(-43.371971, -69.369042) " points="42.7855772 48.922503 44.0065001 48.9210625 43.9583655 89.8155806 42.7374426 89.8170211"></polygon>
            <path d="M4.17310578,77.5403542 C4.7084288,78.3886366 4.85132379,79.4108707 5.05820162,80.4051865 C5.17294482,81.1041458 5.40902017,81.7773008 5.75561448,82.3938183 C6.21202535,83.126133 6.90943821,83.6544304 7.56419586,84.2213838 C7.68363048,84.3266138 7.80306509,84.4361388 7.91823419,84.5392213 C8.00141187,84.6143855 8.08458955,84.6959924 8.16350171,84.7754518 C8.93129569,85.5593077 9.5007429,86.7683787 9.03793375,87.7455141 C9.02372466,87.7787851 9.00733745,87.8110693 8.98888024,87.8421539 C9.02634765,87.8677777 9.06554326,87.8907405 9.1061821,87.9108755 C9.69482415,88.1986473 10.4348922,87.7390715 10.9211618,87.2515775 C11.6974868,86.4698692 12.3693065,85.5636028 13.0752504,84.7067302 C13.8814341,83.7274472 14.7366713,82.8104431 15.8478398,82.2263094 C16.2580371,82.0147523 16.6863183,81.8408144 17.1274964,81.7066021 C17.7822541,81.4918471 18.4604721,81.339371 19.1173625,81.1332062 C20.0196219,80.8426432 20.8957738,80.4755274 21.7363931,80.0358079 C23.1951074,79.2496493 24.6053007,78.3754341 25.95926,77.4179438 L26.1597395,77.2805006 C26.6143899,76.993606 27.036364,76.6572866 27.4180685,76.2775945 C27.4863169,76.2045778 27.5524325,76.1294135 27.6142825,76.0499541 C27.9427277,75.620444 28.1581366,75.128655 28.467387,74.6884071 C28.7881135,74.2361578 29.1903614,73.8486042 29.6532021,73.5459102 C30.9584519,72.6718572 32.6902539,72.3368393 34.2407711,71.8665258 L34.2578332,71.8665258 C37.0285668,71.0178067 39.5534521,69.5048981 41.6158589,67.4576046 C41.78679,67.313828 41.9145566,67.1249392 41.9848265,66.9121267 C42.0509421,66.6093221 41.8888523,66.3086651 41.7331607,66.0423688 C41.551876,65.7288264 41.3748569,65.4152841 41.1999705,65.0974466 C40.4134418,63.6560226 39.7112764,62.1695291 39.0970681,60.6455744 C38.9627041,60.3105565 38.8326057,59.9776862 38.7067728,59.6405208 C38.384015,58.7815006 38.0896939,57.9103109 37.8238097,57.0269518 C37.7363665,56.7348849 37.6510561,56.4406705 37.5700112,56.1464561 C37.5550818,56.0906198 37.5380197,56.0304884 37.5230904,55.9660619 C37.1690521,54.5336457 36.6955791,51.1813193 35.2367706,52.1842254 C34.8029132,52.4965774 34.3994384,52.8496391 34.0317606,53.2386727 C33.7481033,53.528592 33.4708444,53.8271016 33.1786561,54.1148733 C32.9406655,54.3505544 32.6892877,54.5721248 32.4257915,54.7784664 C32.1583824,54.9846419 31.8728277,55.1657888 31.5726871,55.3196492 C30.4145978,55.9166682 29.190393,56.4170475 28.0621624,57.0570175 C27.4408718,57.398877 26.8574758,57.8063426 26.3218293,58.2725311 C25.5774957,58.9339766 24.9461985,59.7500458 24.0781647,60.2289496 L23.9843232,60.2804908 C22.4530008,61.0643467 20.6508177,60.5940332 18.9083519,60.5596724 C18.6522606,60.5531812 18.3960072,60.559632 18.1405579,60.5790003 C16.7265374,60.6863779 15.4340842,61.2576263 14.1842862,61.9555802 C13.3055886,62.4452217 12.4482187,62.9992897 11.5844504,63.499669 C11.0384636,63.8153589 10.4924768,64.1568195 9.94222443,64.5068702 C8.5473987,65.391661 7.13337812,66.3194028 5.67670232,66.9894386 C4.18376958,67.6723596 2.64178334,68.0803942 1.01448665,67.8935573 C0.875857184,68.9995458 1.76308578,69.8929268 2.35599336,70.8679148 C2.64076383,71.2870106 2.81338839,71.7729714 2.85719221,72.2788554 C2.86502992,72.4680627 2.85143477,72.6575531 2.81666975,72.8436612 C2.69723513,73.5287298 2.39011753,74.1987656 2.46689693,74.8881293 C2.52741819,75.2812087 2.6850975,75.652663 2.92544056,75.9683472 C3.29654098,76.5030873 3.81906744,76.981991 4.17310578,77.5403542 Z" id="Path" fill="#F86D70" fill-rule="nonzero"></path>
            <path d="M48.0472485,81 C48.0472485,81 49.5828522,82.7476073 51.1394916,83.678597 C52.696131,84.6095868 51.6653833,87.9492552 51.6653833,87.9492552 C51.6653833,87.9492552 50.0158364,88.4433431 48.8606276,86.3480443 C47.7054189,84.2527455 48.0472485,81 48.0472485,81 Z" id="Path" fill="#FBBEBE" fill-rule="nonzero"></path>
            <path d="M147.375691,109.035726 C147.375691,109.035726 142.40389,115.21812 138.278581,115.268745 C134.153271,115.319371 131.731661,117.872924 133.69038,119.468642 C135.649098,121.064359 156.993554,118.557382 156.993554,118.557382 C156.993554,118.557382 157.194998,110.959498 155.345574,109.849785 C153.496149,108.740073 147.375691,109.035726 147.375691,109.035726 Z" id="Path" fill="#444176" fill-rule="nonzero"></path>
            <path d="M201.075257,116.543722 C201.075257,116.543722 201.828339,121.601608 199.501211,125.050928 C197.174083,128.500247 203.705739,129.830609 203.705739,129.830609 C203.705739,129.830609 208.451213,131.133779 208.796994,126.510979 C209.142775,121.88818 209.030343,118.353098 208.584858,117.976581 C208.139373,117.600063 207.768136,115 207.768136,115 L201.075257,116.543722 Z" id="Path" fill="#444176" fill-rule="nonzero"></path>
            <path d="M126.000073,126.855698 C126.000073,126.855698 125.827353,110.219029 142.329549,103.456726 L146.161368,96.1839007 L147.999446,91.7168243 C149.350339,88.4331471 152.223261,86.0142685 155.695069,85.2374364 L158.667554,84.5716293 L159.586594,80.7086718 C160.587364,76.4884254 164.007899,73.2659746 168.288682,72.510523 C170.096212,72.1757935 171.930398,72.0049223 173.768801,72 C175.423335,72.0248633 176.943811,72.9128216 177.775472,74.3398972 L177.775472,74.3398972 C177.775472,74.3398972 193.409805,74.1675956 194.102816,82.6592951 C194.102816,82.6592951 195.667955,90.455407 197.926105,91.8423279 C197.926105,91.8423279 201.747262,90.9765659 205.56842,96.5221222 L209.737148,110.731679 C209.737148,110.731679 220.680328,120.954903 217.379463,130.301728 C217.379463,130.301728 212.863162,136.713047 189.934087,132.379982 C189.934087,132.379982 165.442005,139.82511 152.404865,129.614649 C152.402733,129.627413 130.691225,133.786048 126.000073,126.855698 Z" id="Path" fill="#A8A8A8" fill-rule="nonzero"></path>
            <path d="M137,125 C137,125 140.374741,119.963621 140.204969,116.36463 C140.035197,112.76564 141,104 141,104" id="Path" stroke="#000000" opacity="0.1"></path>
            <path d="M150,111 C150,111 153.636161,104.979325 153.272321,101.725283 C153.272321,101.725283 157.091518,95.5328169 160,96.0282142" id="Path" stroke="#000000" opacity="0.1"></path>
            <path d="M169,93 C169,93 178.481481,89.6664393 179,87" id="Path" stroke="#000000" opacity="0.1"></path>
            <path d="M172,100.849285 C172,100.849285 181.790692,96.2420758 181.790692,95 L186.682929,95 C186.682929,95 193.773669,104.747359 192.930323,109" id="Path" stroke="#000000" opacity="0.1"></path>
            <path d="M185,108.077979 C185,108.077979 175.154842,107.376165 171.637173,110.183423 C168.119504,112.990682 161.792015,114.392159 161.792015,114.392159 C161.792015,114.392159 158.099541,122.284344 156.692474,123.685821 C155.285406,125.087297 153,130 153,130" id="Path" stroke="#000000" opacity="0.1"></path>
            <path d="M185,117 C185,117 186.057421,120.578404 187.470206,122.625 C188.88299,124.671596 191,132 191,132" id="Path" stroke="#000000" opacity="0.1"></path>
            <path d="M200,127 C200,127 202.128667,132.942169 204,133" id="Path" stroke="#000000" opacity="0.1"></path>
            <path d="M186,101 C186,101 191.78187,102.616373 194.199235,106.532625 C196.616599,110.448878 204,114 204,114" id="Path" stroke="#000000" opacity="0.1"></path>
            <path d="M189,83 C189,83 189,90.2161772 191.363312,90.2161772 C193.726624,90.2161772 199,91 199,91" id="Path" stroke="#000000" opacity="0.1"></path>
            <path d="M178,73 C178,73 177.345411,86.5036201 174,90" id="Path" stroke="#000000" opacity="0.1"></path>
            <g id="Group" opacity="0.05" transform="translate(137.000000, 72.000000)" fill="#000000" fill-rule="nonzero">
                <path d="M72.5772823,38.78 L68.3990501,24.610303 C64.5691821,19.080303 60.739314,19.9436364 60.739314,19.9436364 C58.4760158,18.5606061 56.9094459,10.7842424 56.9094459,10.7842424 C56.2127177,2.31636364 40.5427441,2.49030303 40.5427441,2.49030303 L40.5427441,2.49030303 C39.7076247,1.0646619 38.1797612,0.178801622 36.5183905,0.156969697 C35.7789182,0.156969697 35.0223483,0.18030303 34.2657784,0.241818182 C34.693219,0.284242424 35.1028496,0.344343434 35.4946702,0.422121212 L36.712876,2.49666667 C36.712876,2.49666667 52.3807124,2.32272727 53.0774406,10.7906061 C53.0774406,10.7906061 54.6461478,18.5669697 56.9094459,19.95 C56.9094459,19.95 60.739314,19.0845455 64.5691821,24.6166667 L68.7474142,38.7863636 C68.7474142,38.7863636 79.7155409,48.9809091 76.4071504,58.3015152 C76.4071504,58.3015152 74.1737731,61.4557576 64.8833509,61.8375758 C77.4094987,62.2936364 80.2370185,58.3015152 80.2370185,58.3015152 C83.545409,48.9745455 72.5772823,38.78 72.5772823,38.78 Z" id="Path"></path>
                <path d="M11.2929815,57.6142424 C7.60750409,58.2724694 3.88060805,58.6771705 0.138918206,58.8254545 C4.50094987,58.9909091 9.03823219,58.5221212 11.9619261,58.1233333 C11.7353826,57.9515152 11.5131135,57.7860606 11.2929815,57.6142424 Z" id="Path"></path>
                <path d="M48.8992084,60.380303 C43.5392639,61.8722997 38.0221108,62.7379602 32.4598417,62.959697 C40.4850396,63.2481818 48.0870712,61.5872727 51.2202111,60.789697 C50.4636412,60.6645455 49.6963852,60.5224242 48.8992084,60.380303 Z" id="Path"></path>
            </g>
            <path d="M48,159.288197 C48,159.288197 52.8383989,159.157815 54.295748,158.248919 C55.753097,157.340024 61.7357849,156.255396 62.0985028,157.712274 C62.4612208,159.169152 69.3679759,164.958873 63.9056157,164.998555 C58.4432555,165.038236 51.2169631,164.254054 49.7617731,163.47743 C48.3065831,162.700806 48,159.288197 48,159.288197 Z" id="Path" fill="#A8A8A8" fill-rule="nonzero"></path>
            <path d="M64.005904,164.37312 C58.5432118,164.421753 51.3143211,163.46069 49.8590427,162.520469 C48.7513901,161.795619 48.3087609,159.197276 48.1619375,158 L48,158 C48,158 48.3066017,162.184676 49.7618802,163.13416 C51.2171586,164.083644 58.4460493,165.044707 63.9065823,164.99839 C65.4849333,164.984495 66.0290434,164.382384 65.998815,163.490795 C65.7807392,164.028064 65.1783316,164.363857 64.005904,164.37312 Z" id="Path" fill="#000000" fill-rule="nonzero" opacity="0.2"></path>
            <path d="M164,147.442467 C164,147.442467 158.39545,146.333836 156.90246,144.85566 C155.409471,143.377485 148.683586,140.794877 147.936029,142.640497 C147.188473,144.486116 137.850387,150.766263 144.20037,151.879094 C150.550353,152.991925 159.143006,153.348871 161.011898,152.618182 C162.880789,151.887492 164,147.442467 164,147.442467 Z" id="Path" fill="#A8A8A8" fill-rule="nonzero"></path>
            <path d="M144.199114,151.060611 C150.551624,152.247489 159.142698,152.63711 161.011708,151.851112 C162.43258,151.247539 163.422306,148.349033 163.813099,147 L164,147.042791 C164,147.042791 162.878594,151.794809 161.011708,152.587563 C159.144822,153.380316 150.551624,152.983939 144.199114,151.794809 C142.36621,151.452483 141.841613,150.646217 142.039134,149.628249 C142.1963,150.299387 142.835587,150.810623 144.199114,151.060611 Z" id="Path" fill="#000000" fill-rule="nonzero" opacity="0.2"></path>
            <path d="M110.060336,24.0007579 L108.780191,24.0007579 C109.275545,24.0007579 109.677108,23.552873 109.677108,23.0003789 C109.677108,22.4478849 109.275545,22 108.780191,22 L98.4085676,22 C97.9132139,22 97.5116504,22.4478849 97.5116504,23.0003789 C97.5116504,23.552873 97.9132139,24.0007579 98.4085676,24.0007579 L99.6887129,24.0007579 C99.2105219,24.0262061 98.8345425,24.4660417 98.8345425,25 C98.8345425,25.5339583 99.2105219,25.9737939 99.6887129,25.9992421 L97.8969171,25.9992421 C97.4015635,25.9992421 97,26.447127 97,26.9996211 C97,27.5521151 97.4015635,28 97.8969171,28 L108.26854,28 C108.763894,28 109.165458,27.5521151 109.165458,26.9996211 C109.165458,26.447127 108.763894,25.9992421 108.26854,25.9992421 L110.060336,25.9992421 C110.390605,26.0168183 110.702759,25.8303012 110.872611,25.5138943 C111.042463,25.1974874 111.042463,24.8025126 110.872611,24.4861057 C110.702759,24.1696988 110.390605,23.9831817 110.060336,24.0007579 L110.060336,24.0007579 Z" id="Path" fill="#6C63FF" fill-rule="nonzero" opacity="0.1"></path>
            <path d="M152.06102,58.0000029 L150.781806,58.0000029 C151.259649,57.9745499 151.635355,57.5346313 151.635355,57.0005722 C151.635355,56.4665131 151.259649,56.0265945 150.781806,56.0011414 L140.407543,56.0011414 C140.077514,55.983562 139.765587,56.1701143 139.595859,56.4865809 C139.42613,56.8030475 139.42613,57.1980968 139.595859,57.5145635 C139.765587,57.8310301 140.077514,58.0175824 140.407543,58.0000029 L141.686757,58.0000029 C141.208914,58.025456 140.833208,58.4653746 140.833208,58.9994337 C140.833208,59.5334928 141.208914,59.9734114 141.686757,59.9988645 L139.896265,59.9988645 C139.401271,59.9988645 139,60.4468339 139,60.9994322 C139,61.5520306 139.401271,62 139.896265,62 L150.258306,62 C150.753299,62 151.15457,61.5520306 151.15457,60.9994322 C151.15457,60.4468339 150.753299,59.9988645 150.258306,59.9988645 L152.06102,59.9988645 C152.391048,60.0164439 152.702975,59.8298916 152.872704,59.513425 C153.042432,59.1969584 153.042432,58.8019091 152.872704,58.4854424 C152.702975,58.1689758 152.391048,57.9824235 152.06102,58.0000029 L152.06102,58.0000029 Z" id="Path" fill="#6C63FF" fill-rule="nonzero" opacity="0.1"></path>
            <path d="M90.0644131,51.0000029 L88.7842678,51.0000029 C89.1145367,51.0175824 89.4266905,50.8310301 89.5965425,50.5145635 C89.7663946,50.1980968 89.7663946,49.8030475 89.5965425,49.4865809 C89.4266905,49.1701143 89.1145367,48.983562 88.7842678,49.0011414 L78.410606,49.0011414 C78.080337,48.983562 77.7681833,49.1701143 77.5983312,49.4865809 C77.4284792,49.8030475 77.4284792,50.1980968 77.5983312,50.5145635 C77.7681833,50.8310301 78.080337,51.0175824 78.410606,51.0000029 L79.6907513,51.0000029 C79.3604824,50.9824235 79.0483286,51.1689758 78.8784766,51.4854424 C78.7086245,51.8019091 78.7086245,52.1969584 78.8784766,52.513425 C79.0483286,52.8298916 79.3604824,53.0164439 79.6907513,52.9988645 L77.8969171,52.9988645 C77.4015635,52.9988645 77,53.4468339 77,53.9994322 C77,54.5520306 77.4015635,55 77.8969171,55 L88.2685404,55 C88.7638941,55 89.1654575,54.5520306 89.1654575,53.9994322 C89.1654575,53.4468339 88.7638941,52.9988645 88.2685404,52.9988645 L90.0603362,52.9988645 C90.3906052,53.0164439 90.7027589,52.8298916 90.872611,52.513425 C91.042463,52.1969584 91.042463,51.8019091 90.872611,51.4854424 C90.7027589,51.1689758 90.3906052,50.9824235 90.0603362,51.0000029 L90.0644131,51.0000029 Z" id="Path" fill="#6C63FF" fill-rule="nonzero" opacity="0.1"></path>
        </g>
    </g>
</svg>